M48
; DRILL file {KiCad (5.1.5)-3} date 31 Jan 2020 2:23:39 AM
; FORMAT={-:-/ absolute / inch / decimal}
; #@! TF.CreationDate,2020-01-31T02:23:39+08:00
; #@! TF.GenerationSoftware,Kicad,Pcbnew,(5.1.5)-3
; #@! TF.FileFunction,NonPlated,1,2,NPTH
FMAT,2
INCH
T1C0.0256
T2C0.0689
T3C0.1200
T4C0.1570
%
G90
G05
T1
X2.605Y0.3477
X2.8325Y0.3477
T2
X0.55Y-3.9375
X0.95Y-3.9375
X4.4875Y-0.9375
X4.8875Y-0.9375
X4.0187Y-3.9375
X4.4188Y-3.9375
X10.4875Y-3.9375
X10.8875Y-3.9375
X-0.2Y-0.9375
X0.2Y-0.9375
X0.55Y-0.9375
X0.95Y-0.9375
X9.55Y-2.4375
X9.95Y-2.4375
X3.0812Y-3.9375
X3.4812Y-3.9375
X0.0Y-1.8625
X0.0Y-2.2625
X4.675Y-3.1875
X5.075Y-3.1875
X5.9875Y-0.9375
X6.3875Y-0.9375
X4.3Y-2.4375
X4.7Y-2.4375
X14.2375Y-1.6875
X14.6375Y-1.6875
X0.175Y-3.9375
X0.575Y-3.9375
X0.55Y-3.1875
X0.95Y-3.1875
X2.9875Y0.0
X3.3875Y0.0
X6.3625Y0.0
X6.7625Y0.0
X4.1125Y-3.9375
X4.5125Y-3.9375
X11.5187Y-3.9375
X11.9187Y-3.9375
X13.4875Y-3.9375
X13.8875Y-3.9375
X6.7375Y-0.9375
X7.1375Y-0.9375
X1.3Y-3.9375
X1.7Y-3.9375
X8.9875Y-3.9375
X9.3875Y-3.9375
X9.7375Y-0.9375
X10.1375Y-0.9375
X12.175Y-3.1875
X12.575Y-3.1875
X7.4875Y-0.9375
X7.8875Y-0.9375
X8.05Y-2.4375
X8.45Y-2.4375
X11.425Y-3.9375
X11.825Y-3.9375
X10.5812Y-3.9375
X10.9812Y-3.9375
X1.3Y-1.6875
X1.7Y-1.6875
X0.55Y-2.4375
X0.95Y-2.4375
X9.3625Y-1.6875
X9.7625Y-1.6875
X8.8Y-2.4375
X9.2Y-2.4375
X6.55Y-2.4375
X6.95Y-2.4375
X1.675Y-3.9375
X2.075Y-3.9375
X5.8Y-2.4375
X6.2Y-2.4375
X8.2375Y0.0
X8.6375Y0.0
X2.05Y0.0
X2.45Y0.0
X3.0812Y-3.1875
X3.4812Y-3.1875
X5.6125Y0.0
X6.0125Y0.0
X13.4875Y-3.1875
X13.8875Y-3.1875
X11.2375Y-3.9375
X11.6375Y-3.9375
X13.1125Y0.0
X13.5125Y0.0
X14.2375Y-3.1875
X14.6375Y-3.1875
X3.175Y-1.6875
X3.575Y-1.6875
X14.2375Y-3.9375
X14.6375Y-3.9375
X10.4875Y-0.9375
X10.8875Y-0.9375
X12.7375Y-3.9375
X13.1375Y-3.9375
X13.3937Y-2.0625
X13.7937Y-2.0625
X8.9875Y-0.9375
X9.3875Y-0.9375
X0.0Y-3.3625
X0.0Y-3.7625
X-0.2Y-1.6875
X0.2Y-1.6875
X2.05Y-2.4375
X2.45Y-2.4375
X14.2375Y-0.9375
X14.6375Y-0.9375
X11.6125Y-1.6875
X12.0125Y-1.6875
X10.3Y-2.4375
X10.7Y-2.4375
X6.175Y-3.1875
X6.575Y-3.1875
X4.8625Y0.0
X5.2625Y0.0
X3.175Y-3.9375
X3.575Y-3.9375
X4.3Y-3.9375
X4.7Y-3.9375
X2.25Y-1.8625
X2.25Y-2.2625
X7.4875Y-3.9375
X7.8875Y-3.9375
X5.6125Y-1.6875
X6.0125Y-1.6875
X2.05Y-3.9375
X2.45Y-3.9375
X2.05Y-1.6875
X2.45Y-1.6875
X7.3Y-2.4375
X7.7Y-2.4375
X5.9875Y-3.9375
X6.3875Y-3.9375
X9.7375Y-3.9375
X10.1375Y-3.9375
X2.9875Y-0.9375
X3.3875Y-0.9375
X3.4562Y-3.1875
X3.8562Y-3.1875
X4.1125Y-1.6875
X4.5125Y-1.6875
X11.8Y-2.4375
X12.2Y-2.4375
X1.3Y-3.1875
X1.7Y-3.1875
X3.925Y-3.1875
X4.325Y-3.1875
X14.2375Y-2.4375
X14.6375Y-2.4375
X7.4875Y0.0
X7.8875Y0.0
X7.7687Y-3.9375
X8.1687Y-3.9375
X12.3625Y0.0
X12.7625Y0.0
X7.8625Y-3.9375
X8.2625Y-3.9375
X0.55Y0.0
X0.95Y0.0
X11.8Y-3.9375
X12.2Y-3.9375
X4.8625Y-1.6875
X5.2625Y-1.6875
X11.9875Y-3.9375
X12.3875Y-3.9375
X1.3Y-0.9375
X1.7Y-0.9375
X0.55Y-1.6875
X0.95Y-1.6875
X2.05Y-3.1875
X2.45Y-3.1875
X12.7375Y-0.9375
X13.1375Y-0.9375
X1.3Y-2.4375
X1.7Y-2.4375
X8.425Y-3.1875
X8.825Y-3.1875
X6.3625Y-1.6875
X6.7625Y-1.6875
X10.1125Y-1.6875
X10.5125Y-1.6875
X5.425Y-3.1875
X5.825Y-3.1875
X3.0812Y-2.4375
X3.4812Y-2.4375
X7.4875Y-3.9375
X7.8875Y-3.9375
X9.7375Y0.0
X10.1375Y0.0
X4.1125Y0.0
X4.5125Y0.0
X10.675Y-3.9375
X11.075Y-3.9375
X3.2687Y-2.4375
X3.6687Y-2.4375
X10.8625Y0.0
X11.2625Y0.0
X12.55Y-2.4375
X12.95Y-2.4375
X7.1125Y-1.6875
X7.5125Y-1.6875
X8.6125Y-1.6875
X9.0125Y-1.6875
X4.9562Y-3.9375
X5.3563Y-3.9375
X8.2375Y-0.9375
X8.6375Y-0.9375
X11.05Y-2.4375
X11.45Y-2.4375
X7.675Y-3.1875
X8.075Y-3.1875
X11.2375Y-0.9375
X11.6375Y-0.9375
X5.05Y-2.4375
X5.45Y-2.4375
X9.175Y-3.1875
X9.575Y-3.1875
X5.2375Y-0.9375
X5.6375Y-0.9375
X6.925Y-3.1875
X7.325Y-3.1875
X12.3625Y-1.6875
X12.7625Y-1.6875
X-0.2Y-3.1875
X0.2Y-3.1875
X12.8312Y-3.1875
X13.2312Y-3.1875
X-0.2Y0.0
X0.2Y0.0
X13.4875Y-0.9375
X13.8875Y-0.9375
X14.2375Y0.0
X14.6375Y0.0
X10.675Y-3.1875
X11.075Y-3.1875
X-0.2Y-3.9375
X0.2Y-3.9375
X2.05Y-0.9375
X2.45Y-0.9375
X13.2062Y-3.1875
X13.6062Y-3.1875
X13.1125Y-0.9375
X13.5125Y-0.9375
X7.8625Y-1.6875
X8.2625Y-1.6875
X13.0187Y-2.4375
X13.4187Y-2.4375
X11.425Y-3.1875
X11.825Y-3.1875
X11.9875Y-0.9375
X12.3875Y-0.9375
X2.25Y-3.3625
X2.25Y-3.7625
X9.925Y-3.1875
X10.325Y-3.1875
X3.7375Y-0.9375
X4.1375Y-0.9375
X10.8625Y-1.6875
X11.2625Y-1.6875
X13.3Y-1.6875
X13.7Y-1.6875
X-0.2Y-2.4375
X0.2Y-2.4375
X8.2375Y-3.9375
X8.6375Y-3.9375
X8.9875Y0.0
X9.3875Y0.0
X1.3Y0.0
X1.7Y0.0
X12.4562Y-3.1875
X12.8562Y-3.1875
X11.6125Y0.0
X12.0125Y0.0
X5.05Y-3.9375
X5.45Y-3.9375
T3
X5.4375Y-4.2125
X9.9375Y-4.2125
X12.5612Y-2.9125
X13.5012Y-2.9125
X12.8425Y-0.6625
X13.7825Y-0.6625
X12.7487Y-2.1625
X13.6887Y-2.1625
X1.975Y-3.0925
X1.975Y-4.0325
X6.1875Y-4.2125
X9.9375Y-4.2125
X-0.275Y-1.5925
X-0.275Y-2.5325
X-0.095Y-4.2125
X0.845Y-4.2125
X1.405Y-4.2125
X2.345Y-4.2125
X13.3187Y-1.5925
X13.3187Y-2.5325
X-0.275Y-3.0925
X-0.275Y-4.0325
X1.975Y-1.5925
X1.975Y-2.5325
X6.9375Y-4.2125
X8.4375Y-4.2125
X3.1862Y-2.9125
X4.1262Y-2.9125
X6.0003Y-4.2125
X9.9373Y-4.2125
X6.1875Y-4.2125
X9.9375Y-4.2125
T4
X9.1875Y-0.9375
X0.0Y-3.5625
X0.325Y-3.0925
X0.325Y-4.0325
X0.0Y-1.6875
X2.25Y-2.4375
X14.4375Y-0.9375
X11.8125Y-1.6875
X10.5Y-2.4375
X6.375Y-3.1875
X5.0625Y0.0
X3.375Y-3.9375
X4.5Y-3.9375
X2.25Y-2.0625
X2.575Y-1.5925
X2.575Y-2.5325
X6.9375Y-3.6125
X7.6875Y-3.9375
X8.4375Y-3.6125
X5.8125Y-1.6875
X2.25Y-3.9375
X2.25Y-1.6875
X7.5Y-2.4375
X6.1875Y-3.9375
X9.9375Y-3.9375
X3.1875Y-0.9375
X3.1862Y-3.5125
X3.6562Y-3.1875
X4.1262Y-3.5125
X4.3125Y-1.6875
X12.0Y-2.4375
X1.5Y-3.1875
X4.125Y-3.1875
X14.4375Y-2.4375
X7.6875Y0.0
X6.0003Y-3.6125
X7.9688Y-3.9375
X9.9373Y-3.6125
X12.5625Y0.0
X6.1875Y-3.6125
X8.0625Y-3.9375
X9.9375Y-3.6125
X0.75Y0.0
X12.0Y-3.9375
X5.0625Y-1.6875
X12.1875Y-3.9375
X1.5Y-0.9375
X0.75Y-1.6875
X2.25Y-3.1875
X12.9375Y-0.9375
X1.5Y-2.4375
X8.625Y-3.1875
X6.5625Y-1.6875
X10.3125Y-1.6875
X5.625Y-3.1875
X3.2812Y-2.4375
X5.4375Y-3.6125
X7.6875Y-3.9375
X9.9375Y-3.6125
X9.9375Y0.0
X4.3125Y0.0
X10.875Y-3.9375
X3.4688Y-2.4375
X11.0625Y0.0
X12.75Y-2.4375
X7.3125Y-1.6875
X8.8125Y-1.6875
X5.1562Y-3.9375
X8.4375Y-0.9375
X11.25Y-2.4375
X7.875Y-3.1875
X11.4375Y-0.9375
X5.25Y-2.4375
X9.375Y-3.1875
X5.4375Y-0.9375
X7.125Y-3.1875
X12.5625Y-1.6875
X0.0Y-3.1875
X12.5612Y-3.5125
X13.0312Y-3.1875
X13.5012Y-3.5125
X0.0Y0.0
X13.6875Y-0.9375
X14.4375Y0.0
X10.875Y-3.1875
X0.0Y-3.9375
X2.25Y-0.9375
X13.4062Y-3.1875
X12.8425Y-1.2625
X13.3125Y-0.9375
X13.7825Y-1.2625
X8.0625Y-1.6875
X12.7487Y-2.7625
X13.2188Y-2.4375
X13.6887Y-2.7625
X11.625Y-3.1875
X12.1875Y-0.9375
X2.25Y-3.5625
X2.575Y-3.0925
X2.575Y-4.0325
X10.125Y-3.1875
X3.9375Y-0.9375
X11.0625Y-1.6875
X13.5Y-1.6875
X0.0Y-2.4375
X6.1875Y-3.6125
X8.4375Y-3.9375
X9.9375Y-3.6125
X9.1875Y0.0
X1.5Y0.0
X12.6562Y-3.1875
X11.8125Y0.0
X5.25Y-3.9375
X0.75Y-3.9375
X4.6875Y-0.9375
X4.2188Y-3.9375
X10.6875Y-3.9375
X0.0Y-0.9375
X0.75Y-0.9375
X9.75Y-2.4375
X3.2812Y-3.9375
X0.0Y-2.0625
X0.325Y-1.5925
X0.325Y-2.5325
X4.875Y-3.1875
X6.1875Y-0.9375
X4.5Y-2.4375
X14.4375Y-1.6875
X-0.095Y-3.6125
X0.375Y-3.9375
X0.845Y-3.6125
X0.75Y-3.1875
X3.1875Y0.0
X6.5625Y0.0
X4.3125Y-3.9375
X11.7188Y-3.9375
X13.6875Y-3.9375
X6.9375Y-0.9375
X1.5Y-3.9375
X9.1875Y-3.9375
X9.9375Y-0.9375
X12.375Y-3.1875
X7.6875Y-0.9375
X8.25Y-2.4375
X11.625Y-3.9375
X10.7812Y-3.9375
X1.5Y-1.6875
X0.75Y-2.4375
X9.5625Y-1.6875
X9.0Y-2.4375
X6.75Y-2.4375
X1.405Y-3.6125
X1.875Y-3.9375
X2.345Y-3.6125
X6.0Y-2.4375
X8.4375Y0.0
X2.25Y0.0
X3.2812Y-3.1875
X5.8125Y0.0
X13.6875Y-3.1875
X11.4375Y-3.9375
X13.3125Y0.0
X14.4375Y-3.1875
X3.375Y-1.6875
X14.4375Y-3.9375
X10.6875Y-0.9375
X12.9375Y-3.9375
X13.5938Y-2.0625
X13.9187Y-1.5925
X13.9187Y-2.5325
T0
M30
