M48
; DRILL file {KiCad (5.1.4)-1} date 23 Jan 2020 3:38:46 PM
; FORMAT={-:-/ absolute / inch / decimal}
; #@! TF.CreationDate,2020-01-23T15:38:46+08:00
; #@! TF.GenerationSoftware,Kicad,Pcbnew,(5.1.4)-1
; #@! TF.FileFunction,Plated,1,2,PTH
FMAT,2
INCH
T1C0.0157
T2C0.0236
T3C0.0354
T4C0.0394
T5C0.0409
T6C0.0579
%
G90
G05
T1
X-0.3281Y0.3281
X-0.3125Y-3.5469
X-0.2287Y-4.2557
X-0.15Y-0.3531
X-0.1406Y-2.0625
X-0.1406Y-4.0469
X0.0781Y-4.2188
X0.365Y-1.2557
X0.3807Y-0.3182
X0.4844Y-2.1562
X0.4844Y-2.5156
X0.6Y-0.3531
X1.0312Y-4.1719
X1.0781Y-3.9219
X1.0938Y-3.625
X1.1619Y-1.2557
X1.1619Y-2.0057
X1.1619Y-2.7557
X1.1619Y-3.5057
X1.1719Y-4.25
X1.35Y-0.3531
X2.1Y-0.275
X2.1291Y-1.5197
X2.1401Y-0.4003
X2.1406Y-0.4402
X2.1406Y-0.625
X2.204Y-0.7804
X2.209Y-0.4122
X2.2376Y-0.5625
X2.2661Y-0.5933
X2.2969Y-1.3281
X2.3055Y-0.6088
X2.3375Y-0.6373
X2.3512Y0.1143
X2.4375Y-3.4375
X2.4531Y-0.4531
X2.5316Y-0.7039
X2.5493Y-2.315
X2.5601Y-0.7313
X2.5836Y-0.2086
X2.5938Y-0.4688
X2.5946Y-0.7504
X2.6231Y-0.7859
X2.6535Y-0.75
X2.6707Y-3.0012
X2.6866Y-0.5477
X2.6867Y-3.7804
X2.7188Y-0.2395
X2.7188Y-0.375
X2.7188Y-0.8594
X2.7217Y-3.809
X2.7473Y-3.7519
X2.7503Y-0.571
X2.7656Y-0.4531
X2.7656Y-4.2031
X2.7657Y-2.7969
X2.7812Y-4.1013
X2.7827Y-3.3594
X2.7969Y-0.5312
X2.7969Y-0.9402
X2.8305Y-0.9197
X2.8438Y-3.7233
X2.859Y-0.8839
X2.8752Y-1.854
X2.8752Y-3.2811
X2.8902Y-0.8599
X2.893Y-1.7812
X2.9062Y-0.2395
X2.9188Y-0.8247
X2.9349Y0.0858
X2.9375Y-2.5637
X2.9375Y-2.604
X2.9497Y-0.8004
X2.9673Y0.1143
X2.9688Y0.2031
X2.9688Y-3.7031
X3.0Y-0.3906
X3.0Y-0.5
X3.009Y-0.1652
X3.0312Y-4.0938
X3.066Y-0.2573
X3.0781Y-0.7519
X3.0938Y-1.8438
X3.0958Y-0.283
X3.1174Y-0.7495
X3.146Y-0.809
X3.1562Y0.1856
X3.1598Y-2.8332
X3.1707Y0.1238
X3.2188Y-2.8354
X3.3281Y0.0763
X3.3594Y0.1719
X3.3594Y-0.3125
X3.5781Y-0.0938
X3.5857Y-0.4348
X3.5994Y-1.2557
X3.635Y-2.0057
X3.6818Y-4.2557
X3.6875Y-0.8125
X3.6881Y-3.4838
X3.7443Y-2.7557
X3.75Y0.1719
X3.7737Y-0.5081
X3.7969Y-3.4375
X3.8281Y-3.3438
X3.8438Y-0.0938
X3.8438Y-2.9062
X3.8438Y-3.9688
X3.8594Y0.0386
X3.8594Y-3.7344
X3.8594Y-4.1562
X3.9375Y-0.8125
X3.9375Y-1.8438
X3.9375Y-3.8438
X4.0Y-0.1406
X4.0156Y-3.4688
X4.1719Y-3.7344
X4.25Y-2.8906
X4.3125Y0.125
X4.3125Y-2.0625
X4.3438Y-3.3438
X4.3906Y-3.5
X4.4062Y-3.2031
X4.4375Y-0.8125
X4.4688Y-0.7031
X4.5007Y-3.6087
X4.5057Y-2.7557
X4.5625Y-3.8281
X4.6875Y0.2188
X4.6875Y0.125
X4.6875Y-0.0625
X4.6875Y-0.8125
X4.6875Y-1.8438
X4.6875Y-2.9219
X4.8125Y-3.8906
X4.875Y-2.4531
X4.875Y-2.5938
X5.0625Y0.125
X5.0938Y-3.3438
X5.135Y-1.2557
X5.2031Y-0.8125
X5.2969Y-4.2188
X5.3025Y-0.3182
X5.4219Y-0.8125
X5.4375Y0.2188
X5.4375Y0.125
X5.4375Y-0.0469
X5.4375Y-1.8438
X5.625Y-2.5938
X5.75Y-2.8125
X5.8125Y-4.1875
X5.8281Y0.125
X5.9375Y-0.8125
X6.0Y-2.9375
X6.0781Y-3.25
X6.1719Y-3.9844
X6.1875Y0.2188
X6.1875Y0.125
X6.1875Y-0.0312
X6.1875Y-0.8125
X6.1875Y-1.8438
X6.1875Y-3.3438
X6.375Y-2.5938
X6.5781Y0.125
X6.6562Y-0.8125
X6.75Y-2.9531
X6.75Y-3.3438
X6.9375Y0.125
X6.9375Y-1.8438
X7.125Y-2.5938
X7.3125Y0.2188
X7.3125Y-0.0469
X7.5Y-3.3438
X7.6875Y0.125
X7.6875Y-1.8438
X7.875Y-2.5938
X7.9062Y-2.9062
X8.0625Y0.2188
X8.0625Y0.125
X8.0625Y-0.0469
X8.25Y-3.3438
X8.4375Y0.125
X8.4375Y-1.8438
X8.625Y-2.5938
X8.6875Y-2.875
X8.8125Y0.2188
X8.8125Y0.125
X8.8125Y-0.0625
X9.1875Y0.125
X9.1875Y-1.8438
X9.375Y-2.5938
X9.4375Y-4.2031
X9.5625Y0.2188
X9.5625Y0.125
X9.5625Y-0.0469
X9.6406Y-3.9375
X9.75Y-3.4375
X9.875Y-2.8125
X9.9375Y0.125
X9.9375Y-1.8438
X10.125Y-2.5938
X10.3125Y0.125
X10.4688Y-3.6094
X10.6875Y0.2344
X10.6875Y-0.0156
X10.6875Y-1.8438
X10.7188Y-2.5156
X11.0625Y0.125
X11.3125Y-3.9375
X11.3906Y-1.8438
X11.3906Y-3.75
X11.4375Y0.2188
X11.4375Y0.125
X11.4375Y-0.0469
X11.6625Y-1.7719
X11.6875Y-3.75
X11.8125Y0.125
X11.9219Y-3.7969
X12.1875Y0.2188
X12.1875Y0.125
X12.1875Y-0.0469
X12.5469Y0.125
X12.9375Y0.2188
X12.9375Y0.125
X12.9375Y-0.0312
X12.9375Y-2.7344
X12.9844Y-2.5781
X13.0312Y-1.2656
X13.125Y-2.0625
X13.2344Y-2.2344
X13.25Y-2.9844
X13.5781Y0.2031
X13.5781Y0.1562
X13.6094Y0.094
X13.6875Y-2.5312
X13.7656Y0.0938
X13.9219Y0.094
X14.0469Y-0.1719
X14.0994Y-3.5057
X14.0994Y-4.2557
X14.1122Y-2.8466
X14.1146Y-2.3177
X14.115Y-1.2557
X14.1193Y-0.3182
X14.7656Y0.3281
X14.7656Y-4.2656
T3
X13.8219Y0.0
X13.9219Y0.0
X13.8219Y-0.1875
X13.9219Y-0.1875
X13.8219Y0.1875
X13.9219Y0.1875
T4
X0.9688Y-0.4688
X1.0687Y-0.4688
X1.1687Y-0.4688
X1.2688Y-0.4688
T5
X11.6687Y-4.1375
X11.7687Y-4.1375
X1.45Y-2.6375
X1.55Y-2.6375
X4.075Y-3.3875
X4.175Y-3.3875
X6.5125Y-1.8875
X6.6125Y-1.8875
X10.7312Y-4.1375
X10.8312Y-4.1375
X11.2Y-2.6375
X11.3Y-2.6375
X4.45Y-4.1375
X4.55Y-4.1375
X4.2625Y-1.8875
X4.3625Y-1.8875
X3.2312Y-3.3875
X3.3312Y-3.3875
X12.1375Y-4.1375
X12.2375Y-4.1375
X1.45Y-3.3875
X1.55Y-3.3875
X10.2625Y-1.8875
X10.3625Y-1.8875
X0.7Y-0.2
X0.8Y-0.2
X13.6375Y-1.1375
X13.7375Y-1.1375
X0.7Y-4.1375
X0.8Y-4.1375
X13.5437Y-2.2625
X13.6437Y-2.2625
X11.0125Y-1.8875
X11.1125Y-1.8875
X3.1375Y-1.1375
X3.2375Y-1.1375
X8.7625Y-1.8875
X8.8625Y-1.8875
X3.325Y-4.1375
X3.425Y-4.1375
X0.325Y-4.1375
X0.425Y-4.1375
X4.825Y-3.3875
X4.925Y-3.3875
X14.3875Y-0.2
X14.4875Y-0.2
X12.6062Y-3.3875
X12.7062Y-3.3875
X3.6062Y-3.3875
X3.7062Y-3.3875
X2.2Y-0.2
X2.3Y-0.2
X7.6375Y-1.1375
X7.7375Y-1.1375
X7.6375Y-4.1375
X7.7375Y-4.1375
X14.3875Y-1.1375
X14.4875Y-1.1375
X3.1375Y-0.2
X3.2375Y-0.2
X0.7Y-1.1375
X0.8Y-1.1375
X2.45Y-2.0125
X2.45Y-2.1125
X14.3875Y-2.6375
X14.4875Y-2.6375
X3.325Y-1.8875
X3.425Y-1.8875
X3.2312Y-4.1375
X3.3312Y-4.1375
X6.7Y-2.6375
X6.8Y-2.6375
X5.0125Y-0.2
X5.1125Y-0.2
X11.7625Y-0.2
X11.8625Y-0.2
X12.7Y-2.6375
X12.8Y-2.6375
X10.45Y-2.6375
X10.55Y-2.6375
X-0.05Y-4.1375
X0.05Y-4.1375
X-0.05Y-1.1375
X0.05Y-1.1375
X9.7Y-2.6375
X9.8Y-2.6375
X2.2Y-4.1375
X2.3Y-4.1375
X6.8875Y-1.1375
X6.9875Y-1.1375
X8.2Y-2.6375
X8.3Y-2.6375
X1.45Y-4.1375
X1.55Y-4.1375
X4.6375Y-1.1375
X4.7375Y-1.1375
X5.1063Y-4.1375
X5.2062Y-4.1375
X10.6375Y-4.1375
X10.7375Y-4.1375
X13.6375Y-3.3875
X13.7375Y-3.3875
X3.2312Y-2.6375
X3.3312Y-2.6375
X14.3875Y-3.3875
X14.4875Y-3.3875
X5.3875Y-1.1375
X5.4875Y-1.1375
X14.3875Y-1.8875
X14.4875Y-1.8875
X11.7625Y-1.8875
X11.8625Y-1.8875
X4.2625Y-4.1375
X4.3625Y-4.1375
X7.9188Y-4.1375
X8.0187Y-4.1375
X7.825Y-3.3875
X7.925Y-3.3875
X3.8875Y-1.1375
X3.9875Y-1.1375
X7.2625Y-1.8875
X7.3625Y-1.8875
X0.2Y-2.0125
X0.2Y-2.1125
X-0.05Y-3.3875
X0.05Y-3.3875
X3.4187Y-2.6375
X3.5187Y-2.6375
X1.825Y-4.1375
X1.925Y-4.1375
X11.575Y-3.3875
X11.675Y-3.3875
X0.7Y-1.8875
X0.8Y-1.8875
X2.2Y-3.3875
X2.3Y-3.3875
X-0.05Y-0.2
X0.05Y-0.2
X2.2Y-1.1375
X2.3Y-1.1375
X6.1375Y-1.1375
X6.2375Y-1.1375
X2.45Y-3.5125
X2.45Y-3.6125
X-0.05Y-1.8875
X0.05Y-1.8875
X9.1375Y-0.2
X9.2375Y-0.2
X8.95Y-2.6375
X9.05Y-2.6375
X8.3875Y-0.2
X8.4875Y-0.2
X13.2625Y-0.2
X13.3625Y-0.2
X12.9812Y-3.3875
X13.0812Y-3.3875
X4.45Y-2.6375
X4.55Y-2.6375
X8.575Y-3.3875
X8.675Y-3.3875
X12.1375Y-1.1375
X12.2375Y-1.1375
X14.3875Y-4.1375
X14.4875Y-4.1375
X11.95Y-2.6375
X12.05Y-2.6375
X5.7625Y-0.2
X5.8625Y-0.2
X9.325Y-3.3875
X9.425Y-3.3875
X12.8875Y-1.1375
X12.9875Y-1.1375
X12.8875Y-4.1375
X12.9875Y-4.1375
X2.2Y-2.6375
X2.3Y-2.6375
X11.95Y-4.1375
X12.05Y-4.1375
X5.0125Y-1.8875
X5.1125Y-1.8875
X0.7Y-2.6375
X0.8Y-2.6375
X10.825Y-3.3875
X10.925Y-3.3875
X9.8875Y-1.1375
X9.9875Y-1.1375
X7.45Y-2.6375
X7.55Y-2.6375
X12.5125Y-1.8875
X12.6125Y-1.8875
X10.075Y-3.3875
X10.175Y-3.3875
X1.45Y-1.8875
X1.55Y-1.8875
X-0.05Y-2.6375
X0.05Y-2.6375
X9.5125Y-1.8875
X9.6125Y-1.8875
X5.2Y-4.1375
X5.3Y-4.1375
X7.075Y-3.3875
X7.175Y-3.3875
X1.45Y-1.1375
X1.55Y-1.1375
X13.45Y-1.4875
X13.55Y-1.4875
X11.0125Y-0.2
X11.1125Y-0.2
X10.6375Y-1.1375
X10.7375Y-1.1375
X8.0125Y-1.8875
X8.1125Y-1.8875
X1.45Y-0.2
X1.55Y-0.2
X8.0125Y-4.1375
X8.1125Y-4.1375
X8.3875Y-4.1375
X8.4875Y-4.1375
X2.2Y-1.8875
X2.3Y-1.8875
X0.7Y-3.3875
X0.8Y-3.3875
X9.1375Y-1.1375
X9.2375Y-1.1375
X10.825Y-4.1375
X10.925Y-4.1375
X4.1688Y-4.1375
X4.2687Y-4.1375
X5.7625Y-1.8875
X5.8625Y-1.8875
X0.2Y-3.5125
X0.2Y-3.6125
X6.5125Y-0.2
X6.6125Y-0.2
X13.2625Y-1.1375
X13.3625Y-1.1375
X4.2625Y-0.2
X4.3625Y-0.2
X5.95Y-2.6375
X6.05Y-2.6375
X7.6375Y-0.2
X7.7375Y-0.2
X12.5125Y-0.2
X12.6125Y-0.2
X11.3875Y-4.1375
X11.4875Y-4.1375
X5.2Y-2.6375
X5.3Y-2.6375
X5.575Y-3.3875
X5.675Y-3.3875
X11.3875Y-1.1375
X11.4875Y-1.1375
X13.6375Y-4.1375
X13.7375Y-4.1375
X13.1687Y-2.6375
X13.2687Y-2.6375
X9.8875Y-0.2
X9.9875Y-0.2
X6.325Y-3.3875
X6.425Y-3.3875
X8.3875Y-1.1375
X8.4875Y-1.1375
T6
X8.85Y-2.3375
X9.1Y-2.2375
X8.2875Y0.1
X8.5375Y0.2
X13.1625Y0.1
X13.4125Y0.2
X12.8812Y-3.0875
X13.1312Y-2.9875
X4.35Y-2.3375
X4.6Y-2.2375
X8.475Y-3.0875
X8.725Y-2.9875
X12.0375Y-0.8375
X12.2875Y-0.7375
X14.2875Y-3.8375
X14.5375Y-3.7375
X11.85Y-2.3375
X12.1Y-2.2375
X5.6625Y0.1
X5.9125Y0.2
X9.225Y-3.0875
X9.475Y-2.9875
X12.7875Y-0.8375
X13.0375Y-0.7375
X12.7875Y-3.8375
X13.0375Y-3.7375
X2.1Y-2.3375
X2.35Y-2.2375
X11.85Y-3.8375
X12.1Y-3.7375
X4.9125Y-1.5875
X5.1625Y-1.4875
X0.6Y-2.3375
X0.85Y-2.2375
X10.725Y-3.0875
X10.975Y-2.9875
X9.7875Y-0.8375
X10.0375Y-0.7375
X7.35Y-2.3375
X7.6Y-2.2375
X12.4125Y-1.5875
X12.6625Y-1.4875
X9.975Y-3.0875
X10.225Y-2.9875
X1.35Y-1.5875
X1.6Y-1.4875
X-0.15Y-2.3375
X0.1Y-2.2375
X9.4125Y-1.5875
X9.6625Y-1.4875
X5.1Y-3.8375
X5.35Y-3.7375
X6.975Y-3.0875
X7.225Y-2.9875
X1.35Y-0.8375
X1.6Y-0.7375
X13.4Y-1.8875
X13.65Y-1.7875
X10.9125Y0.1
X11.1625Y0.2
X10.5375Y-0.8375
X10.7875Y-0.7375
X7.9125Y-1.5875
X8.1625Y-1.4875
X1.35Y0.1
X1.6Y0.2
X7.9125Y-3.8375
X8.1625Y-3.7375
X8.2875Y-3.8375
X8.5375Y-3.7375
X2.1Y-1.5875
X2.35Y-1.4875
X0.6Y-3.0875
X0.85Y-2.9875
X9.0375Y-0.8375
X9.2875Y-0.7375
X10.725Y-3.8375
X10.975Y-3.7375
X4.0687Y-3.8375
X4.3187Y-3.7375
X5.6625Y-1.5875
X5.9125Y-1.4875
X-0.2Y-3.4625
X-0.1Y-3.7125
X6.4125Y0.1
X6.6625Y0.2
X13.1625Y-0.8375
X13.4125Y-0.7375
X4.1625Y0.1
X4.4125Y0.2
X5.85Y-2.3375
X6.1Y-2.2375
X7.5375Y0.1
X7.7875Y0.2
X12.4125Y0.1
X12.6625Y0.2
X11.2875Y-3.8375
X11.5375Y-3.7375
X5.1Y-2.3375
X5.35Y-2.2375
X5.475Y-3.0875
X5.725Y-2.9875
X11.2875Y-0.8375
X11.5375Y-0.7375
X13.5375Y-3.8375
X13.7875Y-3.7375
X13.0687Y-2.3375
X13.3187Y-2.2375
X9.7875Y0.1
X10.0375Y0.2
X6.225Y-3.0875
X6.475Y-2.9875
X8.2875Y-0.8375
X8.5375Y-0.7375
X11.5687Y-3.8375
X11.8187Y-3.7375
X1.35Y-2.3375
X1.6Y-2.2375
X3.975Y-3.0875
X4.225Y-2.9875
X6.4125Y-1.5875
X6.6625Y-1.4875
X10.6312Y-3.8375
X10.8812Y-3.7375
X11.1Y-2.3375
X11.35Y-2.2375
X4.35Y-3.8375
X4.6Y-3.7375
X4.1625Y-1.5875
X4.4125Y-1.4875
X3.1313Y-3.0875
X3.3813Y-2.9875
X12.0375Y-3.8375
X12.2875Y-3.7375
X1.35Y-3.0875
X1.6Y-2.9875
X10.1625Y-1.5875
X10.4125Y-1.4875
X0.6Y0.1
X0.85Y0.2
X13.5375Y-0.8375
X13.7875Y-0.7375
X0.6Y-3.8375
X0.85Y-3.7375
X13.4437Y-1.9625
X13.6937Y-1.8625
X10.9125Y-1.5875
X11.1625Y-1.4875
X3.0375Y-0.8375
X3.2875Y-0.7375
X8.6625Y-1.5875
X8.9125Y-1.4875
X3.225Y-3.8375
X3.475Y-3.7375
X0.225Y-3.8375
X0.475Y-3.7375
X4.725Y-3.0875
X4.975Y-2.9875
X14.2875Y0.1
X14.5375Y0.2
X12.5062Y-3.0875
X12.7562Y-2.9875
X3.5063Y-3.0875
X3.7563Y-2.9875
X2.1Y0.1
X2.35Y0.2
X7.5375Y-0.8375
X7.7875Y-0.7375
X7.5375Y-3.8375
X7.7875Y-3.7375
X14.2875Y-0.8375
X14.5375Y-0.7375
X3.0375Y0.1
X3.2875Y0.2
X0.6Y-0.8375
X0.85Y-0.7375
X2.05Y-1.9625
X2.15Y-2.2125
X14.2875Y-2.3375
X14.5375Y-2.2375
X3.225Y-1.5875
X3.475Y-1.4875
X3.1313Y-3.8375
X3.3813Y-3.7375
X6.6Y-2.3375
X6.85Y-2.2375
X4.9125Y0.1
X5.1625Y0.2
X11.6625Y0.1
X11.9125Y0.2
X12.6Y-2.3375
X12.85Y-2.2375
X10.35Y-2.3375
X10.6Y-2.2375
X-0.15Y-3.8375
X0.1Y-3.7375
X-0.15Y-0.8375
X0.1Y-0.7375
X9.6Y-2.3375
X9.85Y-2.2375
X2.1Y-3.8375
X2.35Y-3.7375
X6.7875Y-0.8375
X7.0375Y-0.7375
X8.1Y-2.3375
X8.35Y-2.2375
X1.35Y-3.8375
X1.6Y-3.7375
X4.5375Y-0.8375
X4.7875Y-0.7375
X5.0062Y-3.8375
X5.2562Y-3.7375
X10.5375Y-3.8375
X10.7875Y-3.7375
X13.5375Y-3.0875
X13.7875Y-2.9875
X3.1313Y-2.3375
X3.3813Y-2.2375
X14.2875Y-3.0875
X14.5375Y-2.9875
X5.2875Y-0.8375
X5.5375Y-0.7375
X14.2875Y-1.5875
X14.5375Y-1.4875
X11.6625Y-1.5875
X11.9125Y-1.4875
X4.1625Y-3.8375
X4.4125Y-3.7375
X7.8187Y-3.8375
X8.0687Y-3.7375
X7.725Y-3.0875
X7.975Y-2.9875
X3.7875Y-0.8375
X4.0375Y-0.7375
X7.1625Y-1.5875
X7.4125Y-1.4875
X-0.2Y-1.9625
X-0.1Y-2.2125
X-0.15Y-3.0875
X0.1Y-2.9875
X3.3188Y-2.3375
X3.5688Y-2.2375
X1.725Y-3.8375
X1.975Y-3.7375
X11.475Y-3.0875
X11.725Y-2.9875
X0.6Y-1.5875
X0.85Y-1.4875
X2.1Y-3.0875
X2.35Y-2.9875
X-0.15Y0.1
X0.1Y0.2
X2.1Y-0.8375
X2.35Y-0.7375
X6.0375Y-0.8375
X6.2875Y-0.7375
X2.05Y-3.4625
X2.15Y-3.7125
X-0.15Y-1.5875
X0.1Y-1.4875
X9.0375Y0.1
X9.2875Y0.2
T2
G00X2.5487Y0.5032
M15
G01X2.5487Y0.4796
M16
G05
G00X2.5487Y0.3485
M15
G01X2.5487Y0.3052
M16
G05
G00X2.8888Y0.5032
M15
G01X2.8888Y0.4796
M16
G05
G00X2.8888Y0.3485
M15
G01X2.8888Y0.3052
M16
G05
T0
M30
