  0
SECTION
  2
HEADER
  9
$ANGBASE
  50
0.0
  9
$ANGDIR
  70
1
  9
$MEASUREMENT
  70
1
  0
ENDSEC
  0
SECTION
  2
TABLES
  0
TABLE
  2
LTYPE
  70
4
  0
LTYPE
  5
40F
  2
CONTINUOUS
  70
0
  3
Solid line
  72
65
  73
0
  40
0.0
  0
LTYPE
  5
410
  2
DASHDOT
 70
0
  3
Dash Dot ____ _ ____ _
 72
65
 73
4
 40
2.0
 49
1.25
 49
-0.25
 49
0.25
 49
-0.25
  0
LTYPE
  5
411
  2
DASHED
 70
0
  3
Dashed __ __ __ __ __
 72
65
 73
2
 40
0.75
 49
0.5
 49
-0.25
  0
LTYPE
  5
43B
  2
DOTTED
 70
0
  3
Dotted .  .  .  .
 72
65
 73
2
 40
0.2
 49
0.0
 49
-0.2
  0
ENDTAB
  0
TABLE
  2
STYLE
  70
4
  0
STYLE
  2
KICAD
  70
0
  40
0
  41
1
  42
1
  50
0
  71
0
  3
isocp.shx
  0
STYLE
  2
KICADB
  70
0
  40
0
  41
1
  42
1
  50
0
  71
0
  3
isocp.shx
  0
STYLE
  2
KICADI
  70
0
  40
0
  41
1
  42
1
  50
15
  71
0
  3
isocp.shx
  0
STYLE
  2
KICADBI
  70
0
  40
0
  41
1
  42
1
  50
15
  71
0
  3
isocp.shx
  0
ENDTAB
  0
TABLE
  2
LAYER
  70
1
  0
LAYER
  2
BLACK
  70
0
  62
7
  6
CONTINUOUS
  0
ENDTAB
  0
ENDSEC
  0
SECTION
  2
ENTITIES
0
LINE
8
BLACK
6
CONTINUOUS
10
375.601
20
9.53473
11
375.603
21
9.53425
0
LINE
8
BLACK
6
CONTINUOUS
10
375.603
20
9.53425
11
375.605
21
9.53382
0
LINE
8
BLACK
6
CONTINUOUS
10
375.605
20
9.53382
11
375.753
21
9.48904
0
LINE
8
BLACK
6
CONTINUOUS
10
375.753
20
9.48904
11
375.754
21
9.48894
0
LINE
8
BLACK
6
CONTINUOUS
10
375.754
20
9.48894
11
375.756
21
9.48804
0
LINE
8
BLACK
6
CONTINUOUS
10
375.756
20
9.48804
11
375.758
21
9.48718
0
LINE
8
BLACK
6
CONTINUOUS
10
375.758
20
9.48718
11
375.895
21
9.41446
0
LINE
8
BLACK
6
CONTINUOUS
10
375.895
20
9.41446
11
375.895
21
9.41429
0
LINE
8
BLACK
6
CONTINUOUS
10
375.895
20
9.41429
11
375.897
21
9.41302
0
LINE
8
BLACK
6
CONTINUOUS
10
375.897
20
9.41302
11
375.899
21
9.41175
0
LINE
8
BLACK
6
CONTINUOUS
10
375.899
20
9.41175
11
376.019
21
9.31385
0
LINE
8
BLACK
6
CONTINUOUS
10
376.019
20
9.31385
11
376.019
21
9.31362
0
LINE
8
BLACK
6
CONTINUOUS
10
376.019
20
9.31362
11
376.021
21
9.31201
0
LINE
8
BLACK
6
CONTINUOUS
10
376.021
20
9.31201
11
376.022
21
9.31041
0
LINE
8
BLACK
6
CONTINUOUS
10
376.022
20
9.31041
11
376.121
21
9.19104
0
LINE
8
BLACK
6
CONTINUOUS
10
376.121
20
9.19104
11
376.121
21
9.19077
0
LINE
8
BLACK
6
CONTINUOUS
10
376.121
20
9.19077
11
376.123
21
9.18886
0
LINE
8
BLACK
6
CONTINUOUS
10
376.123
20
9.18886
11
376.124
21
9.187
0
LINE
8
BLACK
6
CONTINUOUS
10
376.124
20
9.187
11
376.197
21
9.05073
0
LINE
8
BLACK
6
CONTINUOUS
10
376.197
20
9.05073
11
376.197
21
9.05073
0
LINE
8
BLACK
6
CONTINUOUS
10
376.197
20
9.05073
11
376.197
21
9.05073
0
LINE
8
BLACK
6
CONTINUOUS
10
376.197
20
9.05073
11
376.198
21
9.05042
0
LINE
8
BLACK
6
CONTINUOUS
10
376.198
20
9.05042
11
376.198
21
9.0483
0
LINE
8
BLACK
6
CONTINUOUS
10
376.198
20
9.0483
11
376.199
21
9.04623
0
LINE
8
BLACK
6
CONTINUOUS
10
376.199
20
9.04623
11
376.245
21
8.89825
0
LINE
8
BLACK
6
CONTINUOUS
10
376.245
20
8.89825
11
376.245
21
8.89791
0
LINE
8
BLACK
6
CONTINUOUS
10
376.245
20
8.89791
11
376.246
21
8.89568
0
LINE
8
BLACK
6
CONTINUOUS
10
376.246
20
8.89568
11
376.246
21
8.89347
0
LINE
8
BLACK
6
CONTINUOUS
10
376.246
20
8.89347
11
376.262
21
8.7394
0
LINE
8
BLACK
6
CONTINUOUS
10
376.262
20
8.7394
11
376.262
21
8.73906
0
LINE
8
BLACK
6
CONTINUOUS
10
376.262
20
8.73906
11
376.262
21
8.73796
0
LINE
8
BLACK
6
CONTINUOUS
10
376.262
20
8.73796
11
376.262
21
8.73688
0
LINE
8
BLACK
6
CONTINUOUS
10
376.262
20
8.73688
11
376.262
21
8.73251
0
LINE
8
BLACK
6
CONTINUOUS
10
376.262
20
8.73251
11
376.262
21
8.73247
0
LINE
8
BLACK
6
CONTINUOUS
10
376.262
20
8.73247
11
376.262
21
-108.745
0
LINE
8
BLACK
6
CONTINUOUS
10
376.262
20
-108.745
11
376.262
21
-108.746
0
LINE
8
BLACK
6
CONTINUOUS
10
376.262
20
-108.746
11
376.262
21
-108.746
0
LINE
8
BLACK
6
CONTINUOUS
10
376.262
20
-108.746
11
376.247
21
-108.9
0
LINE
8
BLACK
6
CONTINUOUS
10
376.247
20
-108.9
11
376.247
21
-108.901
0
LINE
8
BLACK
6
CONTINUOUS
10
376.247
20
-108.901
11
376.247
21
-108.903
0
LINE
8
BLACK
6
CONTINUOUS
10
376.247
20
-108.903
11
376.246
21
-108.905
0
LINE
8
BLACK
6
CONTINUOUS
10
376.246
20
-108.905
11
376.202
21
-109.053
0
LINE
8
BLACK
6
CONTINUOUS
10
376.202
20
-109.053
11
376.201
21
-109.054
0
LINE
8
BLACK
6
CONTINUOUS
10
376.201
20
-109.054
11
376.201
21
-109.056
0
LINE
8
BLACK
6
CONTINUOUS
10
376.201
20
-109.056
11
376.2
21
-109.058
0
LINE
8
BLACK
6
CONTINUOUS
10
376.2
20
-109.058
11
376.127
21
-109.195
0
LINE
8
BLACK
6
CONTINUOUS
10
376.127
20
-109.195
11
376.127
21
-109.195
0
LINE
8
BLACK
6
CONTINUOUS
10
376.127
20
-109.195
11
376.126
21
-109.197
0
LINE
8
BLACK
6
CONTINUOUS
10
376.126
20
-109.197
11
376.124
21
-109.199
0
LINE
8
BLACK
6
CONTINUOUS
10
376.124
20
-109.199
11
376.026
21
-109.319
0
LINE
8
BLACK
6
CONTINUOUS
10
376.026
20
-109.319
11
376.026
21
-109.319
0
LINE
8
BLACK
6
CONTINUOUS
10
376.026
20
-109.319
11
376.025
21
-109.321
0
LINE
8
BLACK
6
CONTINUOUS
10
376.025
20
-109.321
11
376.023
21
-109.322
0
LINE
8
BLACK
6
CONTINUOUS
10
376.023
20
-109.322
11
375.904
21
-109.421
0
LINE
8
BLACK
6
CONTINUOUS
10
375.904
20
-109.421
11
375.903
21
-109.421
0
LINE
8
BLACK
6
CONTINUOUS
10
375.903
20
-109.421
11
375.901
21
-109.423
0
LINE
8
BLACK
6
CONTINUOUS
10
375.901
20
-109.423
11
375.899
21
-109.424
0
LINE
8
BLACK
6
CONTINUOUS
10
375.899
20
-109.424
11
375.763
21
-109.497
0
LINE
8
BLACK
6
CONTINUOUS
10
375.763
20
-109.497
11
375.763
21
-109.498
0
LINE
8
BLACK
6
CONTINUOUS
10
375.763
20
-109.498
11
375.761
21
-109.498
0
LINE
8
BLACK
6
CONTINUOUS
10
375.761
20
-109.498
11
375.759
21
-109.499
0
LINE
8
BLACK
6
CONTINUOUS
10
375.759
20
-109.499
11
375.611
21
-109.545
0
LINE
8
BLACK
6
CONTINUOUS
10
375.611
20
-109.545
11
375.61
21
-109.545
0
LINE
8
BLACK
6
CONTINUOUS
10
375.61
20
-109.545
11
375.608
21
-109.546
0
LINE
8
BLACK
6
CONTINUOUS
10
375.608
20
-109.546
11
375.606
21
-109.546
0
LINE
8
BLACK
6
CONTINUOUS
10
375.606
20
-109.546
11
375.452
21
-109.562
0
LINE
8
BLACK
6
CONTINUOUS
10
375.452
20
-109.562
11
375.452
21
-109.562
0
LINE
8
BLACK
6
CONTINUOUS
10
375.452
20
-109.562
11
375.45
21
-109.562
0
LINE
8
BLACK
6
CONTINUOUS
10
375.45
20
-109.562
11
375.449
21
-109.562
0
LINE
8
BLACK
6
CONTINUOUS
10
375.449
20
-109.562
11
375.445
21
-109.562
0
LINE
8
BLACK
6
CONTINUOUS
10
375.445
20
-109.562
11
375.445
21
-109.562
0
LINE
8
BLACK
6
CONTINUOUS
10
375.445
20
-109.562
11
-8.73247
21
-109.562
0
LINE
8
BLACK
6
CONTINUOUS
10
-8.73247
20
-109.562
11
-8.73367
21
-109.562
0
LINE
8
BLACK
6
CONTINUOUS
10
-8.73367
20
-109.562
11
-8.73369
21
-109.562
0
LINE
8
BLACK
6
CONTINUOUS
10
-8.73369
20
-109.562
11
-8.88786
21
-109.547
0
LINE
8
BLACK
6
CONTINUOUS
10
-8.88786
20
-109.547
11
-8.88821
21
-109.547
0
LINE
8
BLACK
6
CONTINUOUS
10
-8.88821
20
-109.547
11
-8.89046
21
-109.547
0
LINE
8
BLACK
6
CONTINUOUS
10
-8.89046
20
-109.547
11
-8.89265
21
-109.546
0
LINE
8
BLACK
6
CONTINUOUS
10
-8.89265
20
-109.546
11
-9.04095
21
-109.502
0
LINE
8
BLACK
6
CONTINUOUS
10
-9.04095
20
-109.502
11
-9.04128
21
-109.501
0
LINE
8
BLACK
6
CONTINUOUS
10
-9.04128
20
-109.501
11
-9.04337
21
-109.501
0
LINE
8
BLACK
6
CONTINUOUS
10
-9.04337
20
-109.501
11
-9.04546
21
-109.5
0
LINE
8
BLACK
6
CONTINUOUS
10
-9.04546
20
-109.5
11
-9.18224
21
-109.427
0
LINE
8
BLACK
6
CONTINUOUS
10
-9.18224
20
-109.427
11
-9.18255
21
-109.427
0
LINE
8
BLACK
6
CONTINUOUS
10
-9.18255
20
-109.427
11
-9.18441
21
-109.426
0
LINE
8
BLACK
6
CONTINUOUS
10
-9.18441
20
-109.426
11
-9.18631
21
-109.424
0
LINE
8
BLACK
6
CONTINUOUS
10
-9.18631
20
-109.424
11
-9.30635
21
-109.326
0
LINE
8
BLACK
6
CONTINUOUS
10
-9.30635
20
-109.326
11
-9.30662
21
-109.326
0
LINE
8
BLACK
6
CONTINUOUS
10
-9.30662
20
-109.326
11
-9.3082
21
-109.325
0
LINE
8
BLACK
6
CONTINUOUS
10
-9.3082
20
-109.325
11
-9.30982
21
-109.323
0
LINE
8
BLACK
6
CONTINUOUS
10
-9.30982
20
-109.323
11
-9.40856
21
-109.204
0
LINE
8
BLACK
6
CONTINUOUS
10
-9.40856
20
-109.204
11
-9.40878
21
-109.203
0
LINE
8
BLACK
6
CONTINUOUS
10
-9.40878
20
-109.203
11
-9.41002
21
-109.201
0
LINE
8
BLACK
6
CONTINUOUS
10
-9.41002
20
-109.201
11
-9.41129
21
-109.2
0
LINE
8
BLACK
6
CONTINUOUS
10
-9.41129
20
-109.2
11
-9.48497
21
-109.063
0
LINE
8
BLACK
6
CONTINUOUS
10
-9.48497
20
-109.063
11
-9.48513
21
-109.063
0
LINE
8
BLACK
6
CONTINUOUS
10
-9.48513
20
-109.063
11
-9.48598
21
-109.061
0
LINE
8
BLACK
6
CONTINUOUS
10
-9.48598
20
-109.061
11
-9.48686
21
-109.059
0
LINE
8
BLACK
6
CONTINUOUS
10
-9.48686
20
-109.059
11
-9.53267
21
-108.911
0
LINE
8
BLACK
6
CONTINUOUS
10
-9.53267
20
-108.911
11
-9.53277
21
-108.91
0
LINE
8
BLACK
6
CONTINUOUS
10
-9.53277
20
-108.91
11
-9.53319
21
-108.908
0
LINE
8
BLACK
6
CONTINUOUS
10
-9.53319
20
-108.908
11
-9.53365
21
-108.906
0
LINE
8
BLACK
6
CONTINUOUS
10
-9.53365
20
-108.906
11
-9.54984
21
-108.752
0
LINE
8
BLACK
6
CONTINUOUS
10
-9.54984
20
-108.752
11
-9.54988
21
-108.752
0
LINE
8
BLACK
6
CONTINUOUS
10
-9.54988
20
-108.752
11
-9.54987
21
-108.75
0
LINE
8
BLACK
6
CONTINUOUS
10
-9.54987
20
-108.75
11
-9.54998
21
-108.749
0
LINE
8
BLACK
6
CONTINUOUS
10
-9.54998
20
-108.749
11
-9.55
21
-108.745
0
LINE
8
BLACK
6
CONTINUOUS
10
-9.55
20
-108.745
11
-9.55
21
-108.745
0
LINE
8
BLACK
6
CONTINUOUS
10
-9.55
20
-108.745
11
-9.55
21
-108.744
0
LINE
8
BLACK
6
CONTINUOUS
10
-9.55
20
-108.744
11
-9.55
21
-108.744
0
LINE
8
BLACK
6
CONTINUOUS
10
-9.55
20
-108.744
11
-9.55
21
-108.743
0
LINE
8
BLACK
6
CONTINUOUS
10
-9.55
20
-108.743
11
-9.55
21
8.73247
0
LINE
8
BLACK
6
CONTINUOUS
10
-9.55
20
8.73247
11
-9.54988
21
8.73367
0
LINE
8
BLACK
6
CONTINUOUS
10
-9.54988
20
8.73367
11
-9.54988
21
8.73369
0
LINE
8
BLACK
6
CONTINUOUS
10
-9.54988
20
8.73369
11
-9.53476
21
8.88786
0
LINE
8
BLACK
6
CONTINUOUS
10
-9.53476
20
8.88786
11
-9.53473
21
8.88821
0
LINE
8
BLACK
6
CONTINUOUS
10
-9.53473
20
8.88821
11
-9.53425
21
8.89044
0
LINE
8
BLACK
6
CONTINUOUS
10
-9.53425
20
8.89044
11
-9.53382
21
8.89265
0
LINE
8
BLACK
6
CONTINUOUS
10
-9.53382
20
8.89265
11
-9.48904
21
9.04095
0
LINE
8
BLACK
6
CONTINUOUS
10
-9.48904
20
9.04095
11
-9.48894
21
9.04129
0
LINE
8
BLACK
6
CONTINUOUS
10
-9.48894
20
9.04129
11
-9.48804
21
9.04338
0
LINE
8
BLACK
6
CONTINUOUS
10
-9.48804
20
9.04338
11
-9.48718
21
9.04546
0
LINE
8
BLACK
6
CONTINUOUS
10
-9.48718
20
9.04546
11
-9.41446
21
9.18224
0
LINE
8
BLACK
6
CONTINUOUS
10
-9.41446
20
9.18224
11
-9.41429
21
9.18255
0
LINE
8
BLACK
6
CONTINUOUS
10
-9.41429
20
9.18255
11
-9.41302
21
9.18441
0
LINE
8
BLACK
6
CONTINUOUS
10
-9.41302
20
9.18441
11
-9.41175
21
9.18631
0
LINE
8
BLACK
6
CONTINUOUS
10
-9.41175
20
9.18631
11
-9.31385
21
9.30635
0
LINE
8
BLACK
6
CONTINUOUS
10
-9.31385
20
9.30635
11
-9.31362
21
9.30662
0
LINE
8
BLACK
6
CONTINUOUS
10
-9.31362
20
9.30662
11
-9.31201
21
9.3082
0
LINE
8
BLACK
6
CONTINUOUS
10
-9.31201
20
9.3082
11
-9.31041
21
9.30982
0
LINE
8
BLACK
6
CONTINUOUS
10
-9.31041
20
9.30982
11
-9.19104
21
9.40856
0
LINE
8
BLACK
6
CONTINUOUS
10
-9.19104
20
9.40856
11
-9.19077
21
9.40878
0
LINE
8
BLACK
6
CONTINUOUS
10
-9.19077
20
9.40878
11
-9.18886
21
9.41003
0
LINE
8
BLACK
6
CONTINUOUS
10
-9.18886
20
9.41003
11
-9.187
21
9.41129
0
LINE
8
BLACK
6
CONTINUOUS
10
-9.187
20
9.41129
11
-9.05073
21
9.48497
0
LINE
8
BLACK
6
CONTINUOUS
10
-9.05073
20
9.48497
11
-9.05073
21
9.48497
0
LINE
8
BLACK
6
CONTINUOUS
10
-9.05073
20
9.48497
11
-9.05073
21
9.48497
0
LINE
8
BLACK
6
CONTINUOUS
10
-9.05073
20
9.48497
11
-9.05042
21
9.48513
0
LINE
8
BLACK
6
CONTINUOUS
10
-9.05042
20
9.48513
11
-9.0483
21
9.48599
0
LINE
8
BLACK
6
CONTINUOUS
10
-9.0483
20
9.48599
11
-9.04623
21
9.48686
0
LINE
8
BLACK
6
CONTINUOUS
10
-9.04623
20
9.48686
11
-8.89825
21
9.53267
0
LINE
8
BLACK
6
CONTINUOUS
10
-8.89825
20
9.53267
11
-8.89791
21
9.53277
0
LINE
8
BLACK
6
CONTINUOUS
10
-8.89791
20
9.53277
11
-8.89568
21
9.5332
0
LINE
8
BLACK
6
CONTINUOUS
10
-8.89568
20
9.5332
11
-8.89347
21
9.53365
0
LINE
8
BLACK
6
CONTINUOUS
10
-8.89347
20
9.53365
11
-8.7394
21
9.54984
0
LINE
8
BLACK
6
CONTINUOUS
10
-8.7394
20
9.54984
11
-8.73906
21
9.54988
0
LINE
8
BLACK
6
CONTINUOUS
10
-8.73906
20
9.54988
11
-8.73796
21
9.54987
0
LINE
8
BLACK
6
CONTINUOUS
10
-8.73796
20
9.54987
11
-8.73688
21
9.54998
0
LINE
8
BLACK
6
CONTINUOUS
10
-8.73688
20
9.54998
11
-8.73251
21
9.55
0
LINE
8
BLACK
6
CONTINUOUS
10
-8.73251
20
9.55
11
-8.73247
21
9.55
0
LINE
8
BLACK
6
CONTINUOUS
10
-8.73247
20
9.55
11
63.4999
21
9.55
0
LINE
8
BLACK
6
CONTINUOUS
10
63.4999
20
9.55
11
63.5014
21
9.55
0
LINE
8
BLACK
6
CONTINUOUS
10
63.5014
20
9.55
11
63.5748
21
9.55771
0
LINE
8
BLACK
6
CONTINUOUS
10
63.5748
20
9.55771
11
63.6441
21
9.57917
0
LINE
8
BLACK
6
CONTINUOUS
10
63.6441
20
9.57917
11
63.7079
21
9.61367
0
LINE
8
BLACK
6
CONTINUOUS
10
63.7079
20
9.61367
11
63.7638
21
9.65992
0
LINE
8
BLACK
6
CONTINUOUS
10
63.7638
20
9.65992
11
63.8096
21
9.71615
0
LINE
8
BLACK
6
CONTINUOUS
10
63.8096
20
9.71615
11
63.8437
21
9.78021
0
LINE
8
BLACK
6
CONTINUOUS
10
63.8437
20
9.78021
11
63.8647
21
9.84967
0
LINE
8
BLACK
6
CONTINUOUS
10
63.8647
20
9.84967
11
63.8719
21
9.9231
0
LINE
8
BLACK
6
CONTINUOUS
10
63.8719
20
9.9231
11
63.8719
21
13.0981
0
LINE
8
BLACK
6
CONTINUOUS
10
63.8719
20
13.0981
11
63.872
21
13.0993
0
LINE
8
BLACK
6
CONTINUOUS
10
63.872
20
13.0993
11
63.872
21
13.0993
0
LINE
8
BLACK
6
CONTINUOUS
10
63.872
20
13.0993
11
63.8796
21
13.1764
0
LINE
8
BLACK
6
CONTINUOUS
10
63.8796
20
13.1764
11
63.8796
21
13.1767
0
LINE
8
BLACK
6
CONTINUOUS
10
63.8796
20
13.1767
11
63.8801
21
13.179
0
LINE
8
BLACK
6
CONTINUOUS
10
63.8801
20
13.179
11
63.8805
21
13.1812
0
LINE
8
BLACK
6
CONTINUOUS
10
63.8805
20
13.1812
11
63.9029
21
13.2553
0
LINE
8
BLACK
6
CONTINUOUS
10
63.9029
20
13.2553
11
63.903
21
13.2557
0
LINE
8
BLACK
6
CONTINUOUS
10
63.903
20
13.2557
11
63.9039
21
13.2578
0
LINE
8
BLACK
6
CONTINUOUS
10
63.9039
20
13.2578
11
63.9047
21
13.2598
0
LINE
8
BLACK
6
CONTINUOUS
10
63.9047
20
13.2598
11
63.9411
21
13.3282
0
LINE
8
BLACK
6
CONTINUOUS
10
63.9411
20
13.3282
11
63.9411
21
13.3282
0
LINE
8
BLACK
6
CONTINUOUS
10
63.9411
20
13.3282
11
63.9411
21
13.3282
0
LINE
8
BLACK
6
CONTINUOUS
10
63.9411
20
13.3282
11
63.9413
21
13.3285
0
LINE
8
BLACK
6
CONTINUOUS
10
63.9413
20
13.3285
11
63.9425
21
13.3304
0
LINE
8
BLACK
6
CONTINUOUS
10
63.9425
20
13.3304
11
63.9438
21
13.3323
0
LINE
8
BLACK
6
CONTINUOUS
10
63.9438
20
13.3323
11
63.9928
21
13.3923
0
LINE
8
BLACK
6
CONTINUOUS
10
63.9928
20
13.3923
11
63.993
21
13.3926
0
LINE
8
BLACK
6
CONTINUOUS
10
63.993
20
13.3926
11
63.9946
21
13.3942
0
LINE
8
BLACK
6
CONTINUOUS
10
63.9946
20
13.3942
11
63.9962
21
13.3958
0
LINE
8
BLACK
6
CONTINUOUS
10
63.9962
20
13.3958
11
64.0559
21
13.4452
0
LINE
8
BLACK
6
CONTINUOUS
10
64.0559
20
13.4452
11
64.0559
21
13.4452
0
LINE
8
BLACK
6
CONTINUOUS
10
64.0559
20
13.4452
11
64.0559
21
13.4452
0
LINE
8
BLACK
6
CONTINUOUS
10
64.0559
20
13.4452
11
64.0562
21
13.4454
0
LINE
8
BLACK
6
CONTINUOUS
10
64.0562
20
13.4454
11
64.0581
21
13.4466
0
LINE
8
BLACK
6
CONTINUOUS
10
64.0581
20
13.4466
11
64.0599
21
13.4479
0
LINE
8
BLACK
6
CONTINUOUS
10
64.0599
20
13.4479
11
64.1281
21
13.4847
0
LINE
8
BLACK
6
CONTINUOUS
10
64.1281
20
13.4847
11
64.1281
21
13.4847
0
LINE
8
BLACK
6
CONTINUOUS
10
64.1281
20
13.4847
11
64.1281
21
13.4847
0
LINE
8
BLACK
6
CONTINUOUS
10
64.1281
20
13.4847
11
64.1284
21
13.4849
0
LINE
8
BLACK
6
CONTINUOUS
10
64.1284
20
13.4849
11
64.1305
21
13.4858
0
LINE
8
BLACK
6
CONTINUOUS
10
64.1305
20
13.4858
11
64.1326
21
13.4866
0
LINE
8
BLACK
6
CONTINUOUS
10
64.1326
20
13.4866
11
64.2066
21
13.5095
0
LINE
8
BLACK
6
CONTINUOUS
10
64.2066
20
13.5095
11
64.2069
21
13.5096
0
LINE
8
BLACK
6
CONTINUOUS
10
64.2069
20
13.5096
11
64.2091
21
13.5101
0
LINE
8
BLACK
6
CONTINUOUS
10
64.2091
20
13.5101
11
64.2113
21
13.5105
0
LINE
8
BLACK
6
CONTINUOUS
10
64.2113
20
13.5105
11
64.2884
21
13.5186
0
LINE
8
BLACK
6
CONTINUOUS
10
64.2884
20
13.5186
11
64.2887
21
13.5186
0
LINE
8
BLACK
6
CONTINUOUS
10
64.2887
20
13.5186
11
64.2898
21
13.5186
0
LINE
8
BLACK
6
CONTINUOUS
10
64.2898
20
13.5186
11
64.2909
21
13.5187
0
LINE
8
BLACK
6
CONTINUOUS
10
64.2909
20
13.5187
11
64.2925
21
13.5187
0
LINE
8
BLACK
6
CONTINUOUS
10
64.2925
20
13.5187
11
64.2925
21
13.5187
0
LINE
8
BLACK
6
CONTINUOUS
10
64.2925
20
13.5187
11
73.82
21
13.5187
0
LINE
8
BLACK
6
CONTINUOUS
10
73.82
20
13.5187
11
73.8212
21
13.5186
0
LINE
8
BLACK
6
CONTINUOUS
10
73.8212
20
13.5186
11
73.8212
21
13.5186
0
LINE
8
BLACK
6
CONTINUOUS
10
73.8212
20
13.5186
11
73.8983
21
13.5111
0
LINE
8
BLACK
6
CONTINUOUS
10
73.8983
20
13.5111
11
73.8986
21
13.511
0
LINE
8
BLACK
6
CONTINUOUS
10
73.8986
20
13.511
11
73.9009
21
13.5106
0
LINE
8
BLACK
6
CONTINUOUS
10
73.9009
20
13.5106
11
73.9031
21
13.5101
0
LINE
8
BLACK
6
CONTINUOUS
10
73.9031
20
13.5101
11
73.9772
21
13.4877
0
LINE
8
BLACK
6
CONTINUOUS
10
73.9772
20
13.4877
11
73.9775
21
13.4876
0
LINE
8
BLACK
6
CONTINUOUS
10
73.9775
20
13.4876
11
73.9796
21
13.4867
0
LINE
8
BLACK
6
CONTINUOUS
10
73.9796
20
13.4867
11
73.9817
21
13.4859
0
LINE
8
BLACK
6
CONTINUOUS
10
73.9817
20
13.4859
11
74.0501
21
13.4495
0
LINE
8
BLACK
6
CONTINUOUS
10
74.0501
20
13.4495
11
74.0501
21
13.4495
0
LINE
8
BLACK
6
CONTINUOUS
10
74.0501
20
13.4495
11
74.0501
21
13.4495
0
LINE
8
BLACK
6
CONTINUOUS
10
74.0501
20
13.4495
11
74.0504
21
13.4493
0
LINE
8
BLACK
6
CONTINUOUS
10
74.0504
20
13.4493
11
74.0523
21
13.4481
0
LINE
8
BLACK
6
CONTINUOUS
10
74.0523
20
13.4481
11
74.0542
21
13.4468
0
LINE
8
BLACK
6
CONTINUOUS
10
74.0542
20
13.4468
11
74.1142
21
13.3979
0
LINE
8
BLACK
6
CONTINUOUS
10
74.1142
20
13.3979
11
74.1145
21
13.3976
0
LINE
8
BLACK
6
CONTINUOUS
10
74.1145
20
13.3976
11
74.1161
21
13.396
0
LINE
8
BLACK
6
CONTINUOUS
10
74.1161
20
13.396
11
74.1177
21
13.3944
0
LINE
8
BLACK
6
CONTINUOUS
10
74.1177
20
13.3944
11
74.167
21
13.3347
0
LINE
8
BLACK
6
CONTINUOUS
10
74.167
20
13.3347
11
74.167
21
13.3347
0
LINE
8
BLACK
6
CONTINUOUS
10
74.167
20
13.3347
11
74.167
21
13.3347
0
LINE
8
BLACK
6
CONTINUOUS
10
74.167
20
13.3347
11
74.1673
21
13.3345
0
LINE
8
BLACK
6
CONTINUOUS
10
74.1673
20
13.3345
11
74.1685
21
13.3325
0
LINE
8
BLACK
6
CONTINUOUS
10
74.1685
20
13.3325
11
74.1698
21
13.3307
0
LINE
8
BLACK
6
CONTINUOUS
10
74.1698
20
13.3307
11
74.2066
21
13.2626
0
LINE
8
BLACK
6
CONTINUOUS
10
74.2066
20
13.2626
11
74.2066
21
13.2626
0
LINE
8
BLACK
6
CONTINUOUS
10
74.2066
20
13.2626
11
74.2066
21
13.2626
0
LINE
8
BLACK
6
CONTINUOUS
10
74.2066
20
13.2626
11
74.2068
21
13.2623
0
LINE
8
BLACK
6
CONTINUOUS
10
74.2068
20
13.2623
11
74.2076
21
13.2602
0
LINE
8
BLACK
6
CONTINUOUS
10
74.2076
20
13.2602
11
74.2085
21
13.2581
0
LINE
8
BLACK
6
CONTINUOUS
10
74.2085
20
13.2581
11
74.2314
21
13.1841
0
LINE
8
BLACK
6
CONTINUOUS
10
74.2314
20
13.1841
11
74.2315
21
13.1837
0
LINE
8
BLACK
6
CONTINUOUS
10
74.2315
20
13.1837
11
74.2319
21
13.1815
0
LINE
8
BLACK
6
CONTINUOUS
10
74.2319
20
13.1815
11
74.2324
21
13.1793
0
LINE
8
BLACK
6
CONTINUOUS
10
74.2324
20
13.1793
11
74.2405
21
13.1023
0
LINE
8
BLACK
6
CONTINUOUS
10
74.2405
20
13.1023
11
74.2405
21
13.1019
0
LINE
8
BLACK
6
CONTINUOUS
10
74.2405
20
13.1019
11
74.2405
21
13.1008
0
LINE
8
BLACK
6
CONTINUOUS
10
74.2405
20
13.1008
11
74.2406
21
13.0997
0
LINE
8
BLACK
6
CONTINUOUS
10
74.2406
20
13.0997
11
74.2406
21
13.0981
0
LINE
8
BLACK
6
CONTINUOUS
10
74.2406
20
13.0981
11
74.2406
21
13.0981
0
LINE
8
BLACK
6
CONTINUOUS
10
74.2406
20
13.0981
11
74.2406
21
9.92197
0
LINE
8
BLACK
6
CONTINUOUS
10
74.2406
20
9.92197
11
74.2406
21
9.92046
0
LINE
8
BLACK
6
CONTINUOUS
10
74.2406
20
9.92046
11
74.2483
21
9.84712
0
LINE
8
BLACK
6
CONTINUOUS
10
74.2483
20
9.84712
11
74.2698
21
9.77781
0
LINE
8
BLACK
6
CONTINUOUS
10
74.2698
20
9.77781
11
74.3043
21
9.71399
0
LINE
8
BLACK
6
CONTINUOUS
10
74.3043
20
9.71399
11
74.3505
21
9.65809
0
LINE
8
BLACK
6
CONTINUOUS
10
74.3505
20
9.65809
11
74.4068
21
9.61223
0
LINE
8
BLACK
6
CONTINUOUS
10
74.4068
20
9.61223
11
74.4708
21
9.57817
0
LINE
8
BLACK
6
CONTINUOUS
10
74.4708
20
9.57817
11
74.5403
21
9.5572
0
LINE
8
BLACK
6
CONTINUOUS
10
74.5403
20
9.5572
11
74.6137
21
9.55
0
LINE
8
BLACK
6
CONTINUOUS
10
74.6137
20
9.55
11
375.445
21
9.55
0
LINE
8
BLACK
6
CONTINUOUS
10
375.445
20
9.55
11
375.446
21
9.54988
0
LINE
8
BLACK
6
CONTINUOUS
10
375.446
20
9.54988
11
375.446
21
9.54988
0
LINE
8
BLACK
6
CONTINUOUS
10
375.446
20
9.54988
11
375.6
21
9.53476
0
LINE
8
BLACK
6
CONTINUOUS
10
375.6
20
9.53476
11
375.6
21
9.53476
0
LINE
8
BLACK
6
CONTINUOUS
10
375.6
20
9.53476
11
375.601
21
9.53473
0
LINE
8
BLACK
6
CONTINUOUS
10
-8.73544
20
9.49998
11
-8.8858
21
9.48418
0
LINE
8
BLACK
6
CONTINUOUS
10
-8.8858
20
9.48418
11
-9.02911
21
9.43982
0
LINE
8
BLACK
6
CONTINUOUS
10
-9.02911
20
9.43982
11
-9.16106
21
9.36848
0
LINE
8
BLACK
6
CONTINUOUS
10
-9.16106
20
9.36848
11
-9.27665
21
9.27285
0
LINE
8
BLACK
6
CONTINUOUS
10
-9.27665
20
9.27285
11
-9.37146
21
9.1566
0
LINE
8
BLACK
6
CONTINUOUS
10
-9.37146
20
9.1566
11
-9.44188
21
9.02415
0
LINE
8
BLACK
6
CONTINUOUS
10
-9.44188
20
9.02415
11
-9.48524
21
8.88055
0
LINE
8
BLACK
6
CONTINUOUS
10
-9.48524
20
8.88055
11
-9.5
21
8.73002
0
LINE
8
BLACK
6
CONTINUOUS
10
-9.5
20
8.73002
11
-9.5
21
-108.744
0
LINE
8
BLACK
6
CONTINUOUS
10
-9.5
20
-108.744
11
-9.49998
21
-108.748
0
LINE
8
BLACK
6
CONTINUOUS
10
-9.49998
20
-108.748
11
-9.48418
21
-108.898
0
LINE
8
BLACK
6
CONTINUOUS
10
-9.48418
20
-108.898
11
-9.43982
21
-109.042
0
LINE
8
BLACK
6
CONTINUOUS
10
-9.43982
20
-109.042
11
-9.36848
21
-109.174
0
LINE
8
BLACK
6
CONTINUOUS
10
-9.36848
20
-109.174
11
-9.27285
21
-109.289
0
LINE
8
BLACK
6
CONTINUOUS
10
-9.27285
20
-109.289
11
-9.1566
21
-109.384
0
LINE
8
BLACK
6
CONTINUOUS
10
-9.1566
20
-109.384
11
-9.02415
21
-109.454
0
LINE
8
BLACK
6
CONTINUOUS
10
-9.02415
20
-109.454
11
-8.88055
21
-109.498
0
LINE
8
BLACK
6
CONTINUOUS
10
-8.88055
20
-109.498
11
-8.73002
21
-109.512
0
LINE
8
BLACK
6
CONTINUOUS
10
-8.73002
20
-109.512
11
375.444
21
-109.512
0
LINE
8
BLACK
6
CONTINUOUS
10
375.444
20
-109.512
11
375.448
21
-109.512
0
LINE
8
BLACK
6
CONTINUOUS
10
375.448
20
-109.512
11
375.598
21
-109.497
0
LINE
8
BLACK
6
CONTINUOUS
10
375.598
20
-109.497
11
375.742
21
-109.452
0
LINE
8
BLACK
6
CONTINUOUS
10
375.742
20
-109.452
11
375.874
21
-109.381
0
LINE
8
BLACK
6
CONTINUOUS
10
375.874
20
-109.381
11
375.989
21
-109.285
0
LINE
8
BLACK
6
CONTINUOUS
10
375.989
20
-109.285
11
376.084
21
-109.169
0
LINE
8
BLACK
6
CONTINUOUS
10
376.084
20
-109.169
11
376.154
21
-109.037
0
LINE
8
BLACK
6
CONTINUOUS
10
376.154
20
-109.037
11
376.198
21
-108.893
0
LINE
8
BLACK
6
CONTINUOUS
10
376.198
20
-108.893
11
376.212
21
-108.743
0
LINE
8
BLACK
6
CONTINUOUS
10
376.212
20
-108.743
11
376.213
21
8.73115
0
LINE
8
BLACK
6
CONTINUOUS
10
376.213
20
8.73115
11
376.212
21
8.73116
0
LINE
8
BLACK
6
CONTINUOUS
10
376.212
20
8.73116
11
376.212
21
8.73544
0
LINE
8
BLACK
6
CONTINUOUS
10
376.212
20
8.73544
11
376.197
21
8.8858
0
LINE
8
BLACK
6
CONTINUOUS
10
376.197
20
8.8858
11
376.152
21
9.02911
0
LINE
8
BLACK
6
CONTINUOUS
10
376.152
20
9.02911
11
376.081
21
9.16106
0
LINE
8
BLACK
6
CONTINUOUS
10
376.081
20
9.16106
11
375.985
21
9.27665
0
LINE
8
BLACK
6
CONTINUOUS
10
375.985
20
9.27665
11
375.869
21
9.37146
0
LINE
8
BLACK
6
CONTINUOUS
10
375.869
20
9.37146
11
375.737
21
9.44188
0
LINE
8
BLACK
6
CONTINUOUS
10
375.737
20
9.44188
11
375.593
21
9.48524
0
LINE
8
BLACK
6
CONTINUOUS
10
375.593
20
9.48524
11
375.443
21
9.5
0
LINE
8
BLACK
6
CONTINUOUS
10
375.443
20
9.5
11
74.6113
21
9.5
0
LINE
8
BLACK
6
CONTINUOUS
10
74.6113
20
9.5
11
74.6101
21
9.50012
0
LINE
8
BLACK
6
CONTINUOUS
10
74.6101
20
9.50012
11
74.6101
21
9.50012
0
LINE
8
BLACK
6
CONTINUOUS
10
74.6101
20
9.50012
11
74.533
21
9.50768
0
LINE
8
BLACK
6
CONTINUOUS
10
74.533
20
9.50768
11
74.533
21
9.50768
0
LINE
8
BLACK
6
CONTINUOUS
10
74.533
20
9.50768
11
74.5326
21
9.50771
0
LINE
8
BLACK
6
CONTINUOUS
10
74.5326
20
9.50771
11
74.5304
21
9.50819
0
LINE
8
BLACK
6
CONTINUOUS
10
74.5304
20
9.50819
11
74.5282
21
9.50863
0
LINE
8
BLACK
6
CONTINUOUS
10
74.5282
20
9.50863
11
74.454
21
9.53101
0
LINE
8
BLACK
6
CONTINUOUS
10
74.454
20
9.53101
11
74.4537
21
9.53112
0
LINE
8
BLACK
6
CONTINUOUS
10
74.4537
20
9.53112
11
74.4516
21
9.53201
0
LINE
8
BLACK
6
CONTINUOUS
10
74.4516
20
9.53201
11
74.4495
21
9.53287
0
LINE
8
BLACK
6
CONTINUOUS
10
74.4495
20
9.53287
11
74.3811
21
9.56923
0
LINE
8
BLACK
6
CONTINUOUS
10
74.3811
20
9.56923
11
74.3808
21
9.5694
0
LINE
8
BLACK
6
CONTINUOUS
10
74.3808
20
9.5694
11
74.379
21
9.57067
0
LINE
8
BLACK
6
CONTINUOUS
10
74.379
20
9.57067
11
74.3771
21
9.57193
0
LINE
8
BLACK
6
CONTINUOUS
10
74.3771
20
9.57193
11
74.317
21
9.62089
0
LINE
8
BLACK
6
CONTINUOUS
10
74.317
20
9.62089
11
74.3168
21
9.62111
0
LINE
8
BLACK
6
CONTINUOUS
10
74.3168
20
9.62111
11
74.3152
21
9.62274
0
LINE
8
BLACK
6
CONTINUOUS
10
74.3152
20
9.62274
11
74.3136
21
9.62433
0
LINE
8
BLACK
6
CONTINUOUS
10
74.3136
20
9.62433
11
74.2642
21
9.68401
0
LINE
8
BLACK
6
CONTINUOUS
10
74.2642
20
9.68401
11
74.264
21
9.68428
0
LINE
8
BLACK
6
CONTINUOUS
10
74.264
20
9.68428
11
74.2627
21
9.68619
0
LINE
8
BLACK
6
CONTINUOUS
10
74.2627
20
9.68619
11
74.2615
21
9.68805
0
LINE
8
BLACK
6
CONTINUOUS
10
74.2615
20
9.68805
11
74.2246
21
9.75619
0
LINE
8
BLACK
6
CONTINUOUS
10
74.2246
20
9.75619
11
74.2246
21
9.75619
0
LINE
8
BLACK
6
CONTINUOUS
10
74.2246
20
9.75619
11
74.2246
21
9.75619
0
LINE
8
BLACK
6
CONTINUOUS
10
74.2246
20
9.75619
11
74.2245
21
9.7565
0
LINE
8
BLACK
6
CONTINUOUS
10
74.2245
20
9.7565
11
74.2236
21
9.75863
0
LINE
8
BLACK
6
CONTINUOUS
10
74.2236
20
9.75863
11
74.2228
21
9.76069
0
LINE
8
BLACK
6
CONTINUOUS
10
74.2228
20
9.76069
11
74.1998
21
9.83468
0
LINE
8
BLACK
6
CONTINUOUS
10
74.1998
20
9.83468
11
74.1997
21
9.83501
0
LINE
8
BLACK
6
CONTINUOUS
10
74.1997
20
9.83501
11
74.1993
21
9.83725
0
LINE
8
BLACK
6
CONTINUOUS
10
74.1993
20
9.83725
11
74.1989
21
9.83946
0
LINE
8
BLACK
6
CONTINUOUS
10
74.1989
20
9.83946
11
74.1908
21
9.91649
0
LINE
8
BLACK
6
CONTINUOUS
10
74.1908
20
9.91649
11
74.1907
21
9.91684
0
LINE
8
BLACK
6
CONTINUOUS
10
74.1907
20
9.91684
11
74.1907
21
9.91793
0
LINE
8
BLACK
6
CONTINUOUS
10
74.1907
20
9.91793
11
74.1906
21
9.91901
0
LINE
8
BLACK
6
CONTINUOUS
10
74.1906
20
9.91901
11
74.1906
21
9.92062
0
LINE
8
BLACK
6
CONTINUOUS
10
74.1906
20
9.92062
11
74.1906
21
9.92066
0
LINE
8
BLACK
6
CONTINUOUS
10
74.1906
20
9.92066
11
74.1906
21
9.92151
0
LINE
8
BLACK
6
CONTINUOUS
10
74.1906
20
9.92151
11
74.1906
21
9.92178
0
LINE
8
BLACK
6
CONTINUOUS
10
74.1906
20
9.92178
11
74.1906
21
9.92213
0
LINE
8
BLACK
6
CONTINUOUS
10
74.1906
20
9.92213
11
74.1906
21
13.0968
0
LINE
8
BLACK
6
CONTINUOUS
10
74.1906
20
13.0968
11
74.1906
21
13.0983
0
LINE
8
BLACK
6
CONTINUOUS
10
74.1906
20
13.0983
11
74.1829
21
13.1716
0
LINE
8
BLACK
6
CONTINUOUS
10
74.1829
20
13.1716
11
74.1615
21
13.2409
0
LINE
8
BLACK
6
CONTINUOUS
10
74.1615
20
13.2409
11
74.127
21
13.3048
0
LINE
8
BLACK
6
CONTINUOUS
10
74.127
20
13.3048
11
74.0807
21
13.3607
0
LINE
8
BLACK
6
CONTINUOUS
10
74.0807
20
13.3607
11
74.0245
21
13.4065
0
LINE
8
BLACK
6
CONTINUOUS
10
74.0245
20
13.4065
11
73.9604
21
13.4406
0
LINE
8
BLACK
6
CONTINUOUS
10
73.9604
20
13.4406
11
73.891
21
13.4615
0
LINE
8
BLACK
6
CONTINUOUS
10
73.891
20
13.4615
11
73.8175
21
13.4688
0
LINE
8
BLACK
6
CONTINUOUS
10
73.8175
20
13.4688
11
64.2938
21
13.4688
0
LINE
8
BLACK
6
CONTINUOUS
10
64.2938
20
13.4688
11
64.2923
21
13.4687
0
LINE
8
BLACK
6
CONTINUOUS
10
64.2923
20
13.4687
11
64.219
21
13.461
0
LINE
8
BLACK
6
CONTINUOUS
10
64.219
20
13.461
11
64.1497
21
13.4396
0
LINE
8
BLACK
6
CONTINUOUS
10
64.1497
20
13.4396
11
64.0859
21
13.4051
0
LINE
8
BLACK
6
CONTINUOUS
10
64.0859
20
13.4051
11
64.03
21
13.3588
0
LINE
8
BLACK
6
CONTINUOUS
10
64.03
20
13.3588
11
63.9841
21
13.3026
0
LINE
8
BLACK
6
CONTINUOUS
10
63.9841
20
13.3026
11
63.95
21
13.2385
0
LINE
8
BLACK
6
CONTINUOUS
10
63.95
20
13.2385
11
63.9291
21
13.1691
0
LINE
8
BLACK
6
CONTINUOUS
10
63.9291
20
13.1691
11
63.9219
21
13.0956
0
LINE
8
BLACK
6
CONTINUOUS
10
63.9219
20
13.0956
11
63.9219
21
9.92066
0
LINE
8
BLACK
6
CONTINUOUS
10
63.9219
20
9.92066
11
63.9218
21
9.91945
0
LINE
8
BLACK
6
CONTINUOUS
10
63.9218
20
9.91945
11
63.9218
21
9.91944
0
LINE
8
BLACK
6
CONTINUOUS
10
63.9218
20
9.91944
11
63.9142
21
9.84235
0
LINE
8
BLACK
6
CONTINUOUS
10
63.9142
20
9.84235
11
63.9142
21
9.842
0
LINE
8
BLACK
6
CONTINUOUS
10
63.9142
20
9.842
11
63.9137
21
9.83976
0
LINE
8
BLACK
6
CONTINUOUS
10
63.9137
20
9.83976
11
63.9132
21
9.83756
0
LINE
8
BLACK
6
CONTINUOUS
10
63.9132
20
9.83756
11
63.8909
21
9.76341
0
LINE
8
BLACK
6
CONTINUOUS
10
63.8909
20
9.76341
11
63.8908
21
9.76308
0
LINE
8
BLACK
6
CONTINUOUS
10
63.8908
20
9.76308
11
63.8899
21
9.76098
0
LINE
8
BLACK
6
CONTINUOUS
10
63.8899
20
9.76098
11
63.889
21
9.7589
0
LINE
8
BLACK
6
CONTINUOUS
10
63.889
20
9.7589
11
63.8526
21
9.69051
0
LINE
8
BLACK
6
CONTINUOUS
10
63.8526
20
9.69051
11
63.8525
21
9.6902
0
LINE
8
BLACK
6
CONTINUOUS
10
63.8525
20
9.6902
11
63.8512
21
9.68836
0
LINE
8
BLACK
6
CONTINUOUS
10
63.8512
20
9.68836
11
63.8499
21
9.68645
0
LINE
8
BLACK
6
CONTINUOUS
10
63.8499
20
9.68645
11
63.801
21
9.62642
0
LINE
8
BLACK
6
CONTINUOUS
10
63.801
20
9.62642
11
63.8008
21
9.62615
0
LINE
8
BLACK
6
CONTINUOUS
10
63.8008
20
9.62615
11
63.7991
21
9.62456
0
LINE
8
BLACK
6
CONTINUOUS
10
63.7991
20
9.62456
11
63.7975
21
9.62296
0
LINE
8
BLACK
6
CONTINUOUS
10
63.7975
20
9.62296
11
63.7379
21
9.57359
0
LINE
8
BLACK
6
CONTINUOUS
10
63.7379
20
9.57359
11
63.7376
21
9.57337
0
LINE
8
BLACK
6
CONTINUOUS
10
63.7376
20
9.57337
11
63.7357
21
9.57212
0
LINE
8
BLACK
6
CONTINUOUS
10
63.7357
20
9.57212
11
63.7338
21
9.57086
0
LINE
8
BLACK
6
CONTINUOUS
10
63.7338
20
9.57086
11
63.6657
21
9.53402
0
LINE
8
BLACK
6
CONTINUOUS
10
63.6657
20
9.53402
11
63.6657
21
9.53402
0
LINE
8
BLACK
6
CONTINUOUS
10
63.6657
20
9.53402
11
63.6657
21
9.53402
0
LINE
8
BLACK
6
CONTINUOUS
10
63.6657
20
9.53402
11
63.6654
21
9.53385
0
LINE
8
BLACK
6
CONTINUOUS
10
63.6654
20
9.53385
11
63.6632
21
9.53299
0
LINE
8
BLACK
6
CONTINUOUS
10
63.6632
20
9.53299
11
63.6612
21
9.53213
0
LINE
8
BLACK
6
CONTINUOUS
10
63.6612
20
9.53213
11
63.5872
21
9.50922
0
LINE
8
BLACK
6
CONTINUOUS
10
63.5872
20
9.50922
11
63.5869
21
9.50912
0
LINE
8
BLACK
6
CONTINUOUS
10
63.5869
20
9.50912
11
63.5846
21
9.5087
0
LINE
8
BLACK
6
CONTINUOUS
10
63.5846
20
9.5087
11
63.5824
21
9.50824
0
LINE
8
BLACK
6
CONTINUOUS
10
63.5824
20
9.50824
11
63.5054
21
9.50015
0
LINE
8
BLACK
6
CONTINUOUS
10
63.5054
20
9.50015
11
63.505
21
9.50011
0
LINE
8
BLACK
6
CONTINUOUS
10
63.505
20
9.50011
11
63.5039
21
9.50012
0
LINE
8
BLACK
6
CONTINUOUS
10
63.5039
20
9.50012
11
63.5029
21
9.50001
0
LINE
8
BLACK
6
CONTINUOUS
10
63.5029
20
9.50001
11
63.5013
21
9.5
0
LINE
8
BLACK
6
CONTINUOUS
10
63.5013
20
9.5
11
63.5012
21
9.5
0
LINE
8
BLACK
6
CONTINUOUS
10
63.5012
20
9.5
11
-8.73116
21
9.5
0
LINE
8
BLACK
6
CONTINUOUS
10
-8.73116
20
9.5
11
-8.73544
21
9.49998
  0
ENDSEC
  0
EOF
