  0
SECTION
  2
HEADER
  9
$ANGBASE
  50
0.0
  9
$ANGDIR
  70
1
  9
$MEASUREMENT
  70
1
  0
ENDSEC
  0
SECTION
  2
TABLES
  0
TABLE
  2
LTYPE
  70
4
  0
LTYPE
  5
40F
  2
CONTINUOUS
  70
0
  3
Solid line
  72
65
  73
0
  40
0.0
  0
LTYPE
  5
410
  2
DASHDOT
 70
0
  3
Dash Dot ____ _ ____ _
 72
65
 73
4
 40
2.0
 49
1.25
 49
-0.25
 49
0.25
 49
-0.25
  0
LTYPE
  5
411
  2
DASHED
 70
0
  3
Dashed __ __ __ __ __
 72
65
 73
2
 40
0.75
 49
0.5
 49
-0.25
  0
LTYPE
  5
43B
  2
DOTTED
 70
0
  3
Dotted .  .  .  .
 72
65
 73
2
 40
0.2
 49
0.0
 49
-0.2
  0
ENDTAB
  0
TABLE
  2
STYLE
  70
4
  0
STYLE
  2
KICAD
  70
0
  40
0
  41
1
  42
1
  50
0
  71
0
  3
isocp.shx
  0
STYLE
  2
KICADB
  70
0
  40
0
  41
1
  42
1
  50
0
  71
0
  3
isocp.shx
  0
STYLE
  2
KICADI
  70
0
  40
0
  41
1
  42
1
  50
15
  71
0
  3
isocp.shx
  0
STYLE
  2
KICADBI
  70
0
  40
0
  41
1
  42
1
  50
15
  71
0
  3
isocp.shx
  0
ENDTAB
  0
TABLE
  2
LAYER
  70
1
  0
LAYER
  2
BLACK
  70
0
  62
7
  6
CONTINUOUS
  0
ENDTAB
  0
ENDSEC
  0
SECTION
  2
ENTITIES
0
LINE
8
BLACK
6
CONTINUOUS
10
377.478
20
-110.728
11
377.478
21
-110.728
0
LINE
8
BLACK
6
CONTINUOUS
10
377.478
20
-110.728
11
377.478
21
-110.728
0
LINE
8
BLACK
6
CONTINUOUS
10
377.478
20
-110.728
11
377.478
21
-110.729
0
LINE
8
BLACK
6
CONTINUOUS
10
377.478
20
-110.729
11
377.478
21
-110.733
0
LINE
8
BLACK
6
CONTINUOUS
10
377.478
20
-110.733
11
377.477
21
-110.738
0
LINE
8
BLACK
6
CONTINUOUS
10
377.477
20
-110.738
11
377.477
21
-110.738
0
LINE
8
BLACK
6
CONTINUOUS
10
377.477
20
-110.738
11
377.477
21
-110.739
0
LINE
8
BLACK
6
CONTINUOUS
10
377.477
20
-110.739
11
377.476
21
-110.743
0
LINE
8
BLACK
6
CONTINUOUS
10
377.476
20
-110.743
11
377.474
21
-110.748
0
LINE
8
BLACK
6
CONTINUOUS
10
377.474
20
-110.748
11
377.474
21
-110.748
0
LINE
8
BLACK
6
CONTINUOUS
10
377.474
20
-110.748
11
377.474
21
-110.748
0
LINE
8
BLACK
6
CONTINUOUS
10
377.474
20
-110.748
11
377.472
21
-110.752
0
LINE
8
BLACK
6
CONTINUOUS
10
377.472
20
-110.752
11
377.47
21
-110.756
0
LINE
8
BLACK
6
CONTINUOUS
10
377.47
20
-110.756
11
377.469
21
-110.756
0
LINE
8
BLACK
6
CONTINUOUS
10
377.469
20
-110.756
11
377.469
21
-110.756
0
LINE
8
BLACK
6
CONTINUOUS
10
377.469
20
-110.756
11
377.466
21
-110.76
0
LINE
8
BLACK
6
CONTINUOUS
10
377.466
20
-110.76
11
377.463
21
-110.764
0
LINE
8
BLACK
6
CONTINUOUS
10
377.463
20
-110.764
11
377.463
21
-110.764
0
LINE
8
BLACK
6
CONTINUOUS
10
377.463
20
-110.764
11
377.463
21
-110.764
0
LINE
8
BLACK
6
CONTINUOUS
10
377.463
20
-110.764
11
377.459
21
-110.767
0
LINE
8
BLACK
6
CONTINUOUS
10
377.459
20
-110.767
11
377.456
21
-110.77
0
LINE
8
BLACK
6
CONTINUOUS
10
377.456
20
-110.77
11
377.456
21
-110.77
0
LINE
8
BLACK
6
CONTINUOUS
10
377.456
20
-110.77
11
377.456
21
-110.77
0
LINE
8
BLACK
6
CONTINUOUS
10
377.456
20
-110.77
11
377.451
21
-110.772
0
LINE
8
BLACK
6
CONTINUOUS
10
377.451
20
-110.772
11
377.447
21
-110.774
0
LINE
8
BLACK
6
CONTINUOUS
10
377.447
20
-110.774
11
377.447
21
-110.774
0
LINE
8
BLACK
6
CONTINUOUS
10
377.447
20
-110.774
11
377.447
21
-110.774
0
LINE
8
BLACK
6
CONTINUOUS
10
377.447
20
-110.774
11
377.442
21
-110.776
0
LINE
8
BLACK
6
CONTINUOUS
10
377.442
20
-110.776
11
377.438
21
-110.777
0
LINE
8
BLACK
6
CONTINUOUS
10
377.438
20
-110.777
11
377.438
21
-110.777
0
LINE
8
BLACK
6
CONTINUOUS
10
377.438
20
-110.777
11
377.437
21
-110.777
0
LINE
8
BLACK
6
CONTINUOUS
10
377.437
20
-110.777
11
377.433
21
-110.778
0
LINE
8
BLACK
6
CONTINUOUS
10
377.433
20
-110.778
11
377.428
21
-110.778
0
LINE
8
BLACK
6
CONTINUOUS
10
377.428
20
-110.778
11
-10.7156
21
-110.778
0
LINE
8
BLACK
6
CONTINUOUS
10
-10.7156
20
-110.778
11
-10.716
21
-110.778
0
LINE
8
BLACK
6
CONTINUOUS
10
-10.716
20
-110.778
11
-10.716
21
-110.778
0
LINE
8
BLACK
6
CONTINUOUS
10
-10.716
20
-110.778
11
-10.716
21
-110.778
0
LINE
8
BLACK
6
CONTINUOUS
10
-10.716
20
-110.778
11
-10.7163
21
-110.778
0
LINE
8
BLACK
6
CONTINUOUS
10
-10.7163
20
-110.778
11
-10.7209
21
-110.778
0
LINE
8
BLACK
6
CONTINUOUS
10
-10.7209
20
-110.778
11
-10.7257
21
-110.777
0
LINE
8
BLACK
6
CONTINUOUS
10
-10.7257
20
-110.777
11
-10.7258
21
-110.777
0
LINE
8
BLACK
6
CONTINUOUS
10
-10.7258
20
-110.777
11
-10.726
21
-110.777
0
LINE
8
BLACK
6
CONTINUOUS
10
-10.726
20
-110.777
11
-10.7305
21
-110.776
0
LINE
8
BLACK
6
CONTINUOUS
10
-10.7305
20
-110.776
11
-10.735
21
-110.774
0
LINE
8
BLACK
6
CONTINUOUS
10
-10.735
20
-110.774
11
-10.7352
21
-110.774
0
LINE
8
BLACK
6
CONTINUOUS
10
-10.7352
20
-110.774
11
-10.7353
21
-110.774
0
LINE
8
BLACK
6
CONTINUOUS
10
-10.7353
20
-110.774
11
-10.7394
21
-110.772
0
LINE
8
BLACK
6
CONTINUOUS
10
-10.7394
20
-110.772
11
-10.7436
21
-110.77
0
LINE
8
BLACK
6
CONTINUOUS
10
-10.7436
20
-110.77
11
-10.7437
21
-110.769
0
LINE
8
BLACK
6
CONTINUOUS
10
-10.7437
20
-110.769
11
-10.7439
21
-110.769
0
LINE
8
BLACK
6
CONTINUOUS
10
-10.7439
20
-110.769
11
-10.7474
21
-110.766
0
LINE
8
BLACK
6
CONTINUOUS
10
-10.7474
20
-110.766
11
-10.7511
21
-110.763
0
LINE
8
BLACK
6
CONTINUOUS
10
-10.7511
20
-110.763
11
-10.7512
21
-110.763
0
LINE
8
BLACK
6
CONTINUOUS
10
-10.7512
20
-110.763
11
-10.7513
21
-110.763
0
LINE
8
BLACK
6
CONTINUOUS
10
-10.7513
20
-110.763
11
-10.7543
21
-110.759
0
LINE
8
BLACK
6
CONTINUOUS
10
-10.7543
20
-110.759
11
-10.7573
21
-110.756
0
LINE
8
BLACK
6
CONTINUOUS
10
-10.7573
20
-110.756
11
-10.7574
21
-110.756
0
LINE
8
BLACK
6
CONTINUOUS
10
-10.7574
20
-110.756
11
-10.7575
21
-110.756
0
LINE
8
BLACK
6
CONTINUOUS
10
-10.7575
20
-110.756
11
-10.7596
21
-110.751
0
LINE
8
BLACK
6
CONTINUOUS
10
-10.7596
20
-110.751
11
-10.7619
21
-110.747
0
LINE
8
BLACK
6
CONTINUOUS
10
-10.7619
20
-110.747
11
-10.7619
21
-110.747
0
LINE
8
BLACK
6
CONTINUOUS
10
-10.7619
20
-110.747
11
-10.762
21
-110.747
0
LINE
8
BLACK
6
CONTINUOUS
10
-10.762
20
-110.747
11
-10.7633
21
-110.742
0
LINE
8
BLACK
6
CONTINUOUS
10
-10.7633
20
-110.742
11
-10.7647
21
-110.738
0
LINE
8
BLACK
6
CONTINUOUS
10
-10.7647
20
-110.738
11
-10.7647
21
-110.738
0
LINE
8
BLACK
6
CONTINUOUS
10
-10.7647
20
-110.738
11
-10.7647
21
-110.737
0
LINE
8
BLACK
6
CONTINUOUS
10
-10.7647
20
-110.737
11
-10.7652
21
-110.733
0
LINE
8
BLACK
6
CONTINUOUS
10
-10.7652
20
-110.733
11
-10.7656
21
-110.728
0
LINE
8
BLACK
6
CONTINUOUS
10
-10.7656
20
-110.728
11
-10.7656
21
9.92188
0
LINE
8
BLACK
6
CONTINUOUS
10
-10.7656
20
9.92188
11
-10.7656
21
9.92221
0
LINE
8
BLACK
6
CONTINUOUS
10
-10.7656
20
9.92221
11
-10.7656
21
9.92222
0
LINE
8
BLACK
6
CONTINUOUS
10
-10.7656
20
9.92222
11
-10.7656
21
9.92224
0
LINE
8
BLACK
6
CONTINUOUS
10
-10.7656
20
9.92224
11
-10.7656
21
9.92257
0
LINE
8
BLACK
6
CONTINUOUS
10
-10.7656
20
9.92257
11
-10.7651
21
9.92718
0
LINE
8
BLACK
6
CONTINUOUS
10
-10.7651
20
9.92718
11
-10.7646
21
9.93193
0
LINE
8
BLACK
6
CONTINUOUS
10
-10.7646
20
9.93193
11
-10.7646
21
9.9321
0
LINE
8
BLACK
6
CONTINUOUS
10
-10.7646
20
9.9321
11
-10.7645
21
9.93227
0
LINE
8
BLACK
6
CONTINUOUS
10
-10.7645
20
9.93227
11
-10.7631
21
9.93674
0
LINE
8
BLACK
6
CONTINUOUS
10
-10.7631
20
9.93674
11
-10.7617
21
9.94125
0
LINE
8
BLACK
6
CONTINUOUS
10
-10.7617
20
9.94125
11
-10.7616
21
9.9414
0
LINE
8
BLACK
6
CONTINUOUS
10
-10.7616
20
9.9414
11
-10.7616
21
9.94157
0
LINE
8
BLACK
6
CONTINUOUS
10
-10.7616
20
9.94157
11
-10.7593
21
9.9457
0
LINE
8
BLACK
6
CONTINUOUS
10
-10.7593
20
9.9457
11
-10.7571
21
9.94984
0
LINE
8
BLACK
6
CONTINUOUS
10
-10.7571
20
9.94984
11
-10.757
21
9.94997
0
LINE
8
BLACK
6
CONTINUOUS
10
-10.757
20
9.94997
11
-10.7569
21
9.95012
0
LINE
8
BLACK
6
CONTINUOUS
10
-10.7569
20
9.95012
11
-10.7539
21
9.95369
0
LINE
8
BLACK
6
CONTINUOUS
10
-10.7539
20
9.95369
11
-10.7509
21
9.95735
0
LINE
8
BLACK
6
CONTINUOUS
10
-10.7509
20
9.95735
11
-10.7507
21
9.95747
0
LINE
8
BLACK
6
CONTINUOUS
10
-10.7507
20
9.95747
11
-10.7506
21
9.9576
0
LINE
8
BLACK
6
CONTINUOUS
10
-10.7506
20
9.9576
11
-10.747
21
9.96051
0
LINE
8
BLACK
6
CONTINUOUS
10
-10.747
20
9.96051
11
-10.7433
21
9.96352
0
LINE
8
BLACK
6
CONTINUOUS
10
-10.7433
20
9.96352
11
-10.7431
21
9.9636
0
LINE
8
BLACK
6
CONTINUOUS
10
-10.7431
20
9.9636
11
-10.743
21
9.96371
0
LINE
8
BLACK
6
CONTINUOUS
10
-10.743
20
9.96371
11
-10.7389
21
9.96587
0
LINE
8
BLACK
6
CONTINUOUS
10
-10.7389
20
9.96587
11
-10.7347
21
9.9681
0
LINE
8
BLACK
6
CONTINUOUS
10
-10.7347
20
9.9681
11
-10.7345
21
9.96815
0
LINE
8
BLACK
6
CONTINUOUS
10
-10.7345
20
9.96815
11
-10.7344
21
9.96823
0
LINE
8
BLACK
6
CONTINUOUS
10
-10.7344
20
9.96823
11
-10.7299
21
9.96955
0
LINE
8
BLACK
6
CONTINUOUS
10
-10.7299
20
9.96955
11
-10.7253
21
9.97092
0
LINE
8
BLACK
6
CONTINUOUS
10
-10.7253
20
9.97092
11
-10.7252
21
9.97094
0
LINE
8
BLACK
6
CONTINUOUS
10
-10.7252
20
9.97094
11
-10.725
21
9.97099
0
LINE
8
BLACK
6
CONTINUOUS
10
-10.725
20
9.97099
11
-10.7203
21
9.97141
0
LINE
8
BLACK
6
CONTINUOUS
10
-10.7203
20
9.97141
11
-10.7156
21
9.97187
0
LINE
8
BLACK
6
CONTINUOUS
10
-10.7156
20
9.97187
11
63.45
21
9.97187
0
LINE
8
BLACK
6
CONTINUOUS
10
63.45
20
9.97187
11
63.45
21
14.6844
0
LINE
8
BLACK
6
CONTINUOUS
10
63.45
20
14.6844
11
63.45
21
14.6847
0
LINE
8
BLACK
6
CONTINUOUS
10
63.45
20
14.6847
11
63.45
21
14.6847
0
LINE
8
BLACK
6
CONTINUOUS
10
63.45
20
14.6847
11
63.45
21
14.6847
0
LINE
8
BLACK
6
CONTINUOUS
10
63.45
20
14.6847
11
63.45
21
14.6851
0
LINE
8
BLACK
6
CONTINUOUS
10
63.45
20
14.6851
11
63.4505
21
14.6897
0
LINE
8
BLACK
6
CONTINUOUS
10
63.4505
20
14.6897
11
63.451
21
14.6944
0
LINE
8
BLACK
6
CONTINUOUS
10
63.451
20
14.6944
11
63.4511
21
14.6946
0
LINE
8
BLACK
6
CONTINUOUS
10
63.4511
20
14.6946
11
63.4511
21
14.6948
0
LINE
8
BLACK
6
CONTINUOUS
10
63.4511
20
14.6948
11
63.4525
21
14.6992
0
LINE
8
BLACK
6
CONTINUOUS
10
63.4525
20
14.6992
11
63.4539
21
14.7038
0
LINE
8
BLACK
6
CONTINUOUS
10
63.4539
20
14.7038
11
63.454
21
14.7039
0
LINE
8
BLACK
6
CONTINUOUS
10
63.454
20
14.7039
11
63.454
21
14.7041
0
LINE
8
BLACK
6
CONTINUOUS
10
63.454
20
14.7041
11
63.4563
21
14.7082
0
LINE
8
BLACK
6
CONTINUOUS
10
63.4563
20
14.7082
11
63.4585
21
14.7123
0
LINE
8
BLACK
6
CONTINUOUS
10
63.4585
20
14.7123
11
63.4587
21
14.7125
0
LINE
8
BLACK
6
CONTINUOUS
10
63.4587
20
14.7125
11
63.4587
21
14.7126
0
LINE
8
BLACK
6
CONTINUOUS
10
63.4587
20
14.7126
11
63.4617
21
14.7162
0
LINE
8
BLACK
6
CONTINUOUS
10
63.4617
20
14.7162
11
63.4648
21
14.7199
0
LINE
8
BLACK
6
CONTINUOUS
10
63.4648
20
14.7199
11
63.4649
21
14.72
0
LINE
8
BLACK
6
CONTINUOUS
10
63.4649
20
14.72
11
63.465
21
14.7201
0
LINE
8
BLACK
6
CONTINUOUS
10
63.465
20
14.7201
11
63.4686
21
14.723
0
LINE
8
BLACK
6
CONTINUOUS
10
63.4686
20
14.723
11
63.4723
21
14.726
0
LINE
8
BLACK
6
CONTINUOUS
10
63.4723
20
14.726
11
63.4725
21
14.7261
0
LINE
8
BLACK
6
CONTINUOUS
10
63.4725
20
14.7261
11
63.4726
21
14.7262
0
LINE
8
BLACK
6
CONTINUOUS
10
63.4726
20
14.7262
11
63.4767
21
14.7284
0
LINE
8
BLACK
6
CONTINUOUS
10
63.4767
20
14.7284
11
63.4809
21
14.7306
0
LINE
8
BLACK
6
CONTINUOUS
10
63.4809
20
14.7306
11
63.4811
21
14.7307
0
LINE
8
BLACK
6
CONTINUOUS
10
63.4811
20
14.7307
11
63.4813
21
14.7307
0
LINE
8
BLACK
6
CONTINUOUS
10
63.4813
20
14.7307
11
63.4857
21
14.732
0
LINE
8
BLACK
6
CONTINUOUS
10
63.4857
20
14.732
11
63.4903
21
14.7334
0
LINE
8
BLACK
6
CONTINUOUS
10
63.4903
20
14.7334
11
63.4905
21
14.7334
0
LINE
8
BLACK
6
CONTINUOUS
10
63.4905
20
14.7334
11
63.4906
21
14.7335
0
LINE
8
BLACK
6
CONTINUOUS
10
63.4906
20
14.7335
11
63.4953
21
14.7339
0
LINE
8
BLACK
6
CONTINUOUS
10
63.4953
20
14.7339
11
63.5
21
14.7344
0
LINE
8
BLACK
6
CONTINUOUS
10
63.5
20
14.7344
11
74.6125
21
14.7344
0
LINE
8
BLACK
6
CONTINUOUS
10
74.6125
20
14.7344
11
74.6128
21
14.7344
0
LINE
8
BLACK
6
CONTINUOUS
10
74.6128
20
14.7344
11
74.6128
21
14.7344
0
LINE
8
BLACK
6
CONTINUOUS
10
74.6128
20
14.7344
11
74.6129
21
14.7344
0
LINE
8
BLACK
6
CONTINUOUS
10
74.6129
20
14.7344
11
74.6132
21
14.7344
0
LINE
8
BLACK
6
CONTINUOUS
10
74.6132
20
14.7344
11
74.6178
21
14.7339
0
LINE
8
BLACK
6
CONTINUOUS
10
74.6178
20
14.7339
11
74.6226
21
14.7334
0
LINE
8
BLACK
6
CONTINUOUS
10
74.6226
20
14.7334
11
74.6227
21
14.7333
0
LINE
8
BLACK
6
CONTINUOUS
10
74.6227
20
14.7333
11
74.6229
21
14.7333
0
LINE
8
BLACK
6
CONTINUOUS
10
74.6229
20
14.7333
11
74.6274
21
14.7319
0
LINE
8
BLACK
6
CONTINUOUS
10
74.6274
20
14.7319
11
74.6319
21
14.7305
0
LINE
8
BLACK
6
CONTINUOUS
10
74.6319
20
14.7305
11
74.632
21
14.7304
0
LINE
8
BLACK
6
CONTINUOUS
10
74.632
20
14.7304
11
74.6322
21
14.7303
0
LINE
8
BLACK
6
CONTINUOUS
10
74.6322
20
14.7303
11
74.6363
21
14.7281
0
LINE
8
BLACK
6
CONTINUOUS
10
74.6363
20
14.7281
11
74.6405
21
14.7258
0
LINE
8
BLACK
6
CONTINUOUS
10
74.6405
20
14.7258
11
74.6406
21
14.7257
0
LINE
8
BLACK
6
CONTINUOUS
10
74.6406
20
14.7257
11
74.6407
21
14.7256
0
LINE
8
BLACK
6
CONTINUOUS
10
74.6407
20
14.7256
11
74.6443
21
14.7226
0
LINE
8
BLACK
6
CONTINUOUS
10
74.6443
20
14.7226
11
74.648
21
14.7196
0
LINE
8
BLACK
6
CONTINUOUS
10
74.648
20
14.7196
11
74.6481
21
14.7195
0
LINE
8
BLACK
6
CONTINUOUS
10
74.6481
20
14.7195
11
74.6482
21
14.7194
0
LINE
8
BLACK
6
CONTINUOUS
10
74.6482
20
14.7194
11
74.6511
21
14.7157
0
LINE
8
BLACK
6
CONTINUOUS
10
74.6511
20
14.7157
11
74.6541
21
14.712
0
LINE
8
BLACK
6
CONTINUOUS
10
74.6541
20
14.712
11
74.6542
21
14.7119
0
LINE
8
BLACK
6
CONTINUOUS
10
74.6542
20
14.7119
11
74.6543
21
14.7118
0
LINE
8
BLACK
6
CONTINUOUS
10
74.6543
20
14.7118
11
74.6565
21
14.7076
0
LINE
8
BLACK
6
CONTINUOUS
10
74.6565
20
14.7076
11
74.6587
21
14.7034
0
LINE
8
BLACK
6
CONTINUOUS
10
74.6587
20
14.7034
11
74.6588
21
14.7033
0
LINE
8
BLACK
6
CONTINUOUS
10
74.6588
20
14.7033
11
74.6589
21
14.7031
0
LINE
8
BLACK
6
CONTINUOUS
10
74.6589
20
14.7031
11
74.6602
21
14.6986
0
LINE
8
BLACK
6
CONTINUOUS
10
74.6602
20
14.6986
11
74.6615
21
14.6941
0
LINE
8
BLACK
6
CONTINUOUS
10
74.6615
20
14.6941
11
74.6616
21
14.6939
0
LINE
8
BLACK
6
CONTINUOUS
10
74.6616
20
14.6939
11
74.6616
21
14.6937
0
LINE
8
BLACK
6
CONTINUOUS
10
74.6616
20
14.6937
11
74.662
21
14.6891
0
LINE
8
BLACK
6
CONTINUOUS
10
74.662
20
14.6891
11
74.6625
21
14.6844
0
LINE
8
BLACK
6
CONTINUOUS
10
74.6625
20
14.6844
11
74.6625
21
9.97187
0
LINE
8
BLACK
6
CONTINUOUS
10
74.6625
20
9.97187
11
377.428
21
9.97187
0
LINE
8
BLACK
6
CONTINUOUS
10
377.428
20
9.97187
11
377.428
21
9.97187
0
LINE
8
BLACK
6
CONTINUOUS
10
377.428
20
9.97187
11
377.428
21
9.97187
0
LINE
8
BLACK
6
CONTINUOUS
10
377.428
20
9.97187
11
377.428
21
9.97187
0
LINE
8
BLACK
6
CONTINUOUS
10
377.428
20
9.97187
11
377.429
21
9.97187
0
LINE
8
BLACK
6
CONTINUOUS
10
377.429
20
9.97187
11
377.433
21
9.97135
0
LINE
8
BLACK
6
CONTINUOUS
10
377.433
20
9.97135
11
377.438
21
9.97085
0
LINE
8
BLACK
6
CONTINUOUS
10
377.438
20
9.97085
11
377.438
21
9.9708
0
LINE
8
BLACK
6
CONTINUOUS
10
377.438
20
9.9708
11
377.439
21
9.97078
0
LINE
8
BLACK
6
CONTINUOUS
10
377.439
20
9.97078
11
377.443
21
9.96936
0
LINE
8
BLACK
6
CONTINUOUS
10
377.443
20
9.96936
11
377.448
21
9.96797
0
LINE
8
BLACK
6
CONTINUOUS
10
377.448
20
9.96797
11
377.448
21
9.96788
0
LINE
8
BLACK
6
CONTINUOUS
10
377.448
20
9.96788
11
377.448
21
9.96783
0
LINE
8
BLACK
6
CONTINUOUS
10
377.448
20
9.96783
11
377.452
21
9.96556
0
LINE
8
BLACK
6
CONTINUOUS
10
377.452
20
9.96556
11
377.456
21
9.96333
0
LINE
8
BLACK
6
CONTINUOUS
10
377.456
20
9.96333
11
377.456
21
9.96321
0
LINE
8
BLACK
6
CONTINUOUS
10
377.456
20
9.96321
11
377.456
21
9.96313
0
LINE
8
BLACK
6
CONTINUOUS
10
377.456
20
9.96313
11
377.46
21
9.96014
0
LINE
8
BLACK
6
CONTINUOUS
10
377.46
20
9.96014
11
377.464
21
9.95711
0
LINE
8
BLACK
6
CONTINUOUS
10
377.464
20
9.95711
11
377.464
21
9.95697
0
LINE
8
BLACK
6
CONTINUOUS
10
377.464
20
9.95697
11
377.464
21
9.95686
0
LINE
8
BLACK
6
CONTINUOUS
10
377.464
20
9.95686
11
377.467
21
9.95324
0
LINE
8
BLACK
6
CONTINUOUS
10
377.467
20
9.95324
11
377.47
21
9.94954
0
LINE
8
BLACK
6
CONTINUOUS
10
377.47
20
9.94954
11
377.47
21
9.94939
0
LINE
8
BLACK
6
CONTINUOUS
10
377.47
20
9.94939
11
377.47
21
9.94925
0
LINE
8
BLACK
6
CONTINUOUS
10
377.47
20
9.94925
11
377.472
21
9.94513
0
LINE
8
BLACK
6
CONTINUOUS
10
377.472
20
9.94513
11
377.474
21
9.94093
0
LINE
8
BLACK
6
CONTINUOUS
10
377.474
20
9.94093
11
377.474
21
9.94076
0
LINE
8
BLACK
6
CONTINUOUS
10
377.474
20
9.94076
11
377.474
21
9.9406
0
LINE
8
BLACK
6
CONTINUOUS
10
377.474
20
9.9406
11
377.476
21
9.93615
0
LINE
8
BLACK
6
CONTINUOUS
10
377.476
20
9.93615
11
377.477
21
9.93159
0
LINE
8
BLACK
6
CONTINUOUS
10
377.477
20
9.93159
11
377.477
21
9.93141
0
LINE
8
BLACK
6
CONTINUOUS
10
377.477
20
9.93141
11
377.477
21
9.93124
0
LINE
8
BLACK
6
CONTINUOUS
10
377.477
20
9.93124
11
377.478
21
9.92659
0
LINE
8
BLACK
6
CONTINUOUS
10
377.478
20
9.92659
11
377.478
21
9.92188
0
LINE
8
BLACK
6
CONTINUOUS
10
377.478
20
9.92188
11
377.478
21
-110.728
0
LINE
8
BLACK
6
CONTINUOUS
10
377.478
20
-110.728
11
377.478
21
-110.728
0
LINE
8
BLACK
6
CONTINUOUS
10
172.691
20
-96.0938
11
172.691
21
-102.741
0
LINE
8
BLACK
6
CONTINUOUS
10
172.691
20
-102.741
11
184.497
21
-102.741
0
LINE
8
BLACK
6
CONTINUOUS
10
184.497
20
-102.741
11
184.497
21
-96.0938
0
LINE
8
BLACK
6
CONTINUOUS
10
184.497
20
-96.0938
11
172.691
21
-96.0938
  0
ENDSEC
  0
EOF
